<svg xmlns="http://www.w3.org/2000/svg" width="1100" height="1100" viewBox="0 0 1100 1100" font-family="Helvetica, Arial, sans-serif">
<rect width="1100" height="1100" fill="#ffffff"/>
<g transform="translate(0,177)">
<text x="70" y="34" fill="#222" font-size="19" font-weight="bold">Live (short window) — gate + adaptive floor</text>
<text x="1070" y="34" text-anchor="end" fill="#888" font-size="13">dB · 250 ms/sample</text>
<rect x="70" y="56" width="1000" height="270" fill="#fafafa" stroke="#ddd"/>
<line x1="70" y1="326.0" x2="1070" y2="326.0" stroke="#e3e3e3"/>
<text x="62" y="330.0" text-anchor="end" fill="#999" font-size="12">-70</text>
<line x1="70" y1="272.0" x2="1070" y2="272.0" stroke="#e3e3e3"/>
<text x="62" y="276.0" text-anchor="end" fill="#999" font-size="12">-60</text>
<line x1="70" y1="218.0" x2="1070" y2="218.0" stroke="#e3e3e3"/>
<text x="62" y="222.0" text-anchor="end" fill="#999" font-size="12">-50</text>
<line x1="70" y1="164.0" x2="1070" y2="164.0" stroke="#e3e3e3"/>
<text x="62" y="168.0" text-anchor="end" fill="#999" font-size="12">-40</text>
<line x1="70" y1="110.0" x2="1070" y2="110.0" stroke="#e3e3e3"/>
<text x="62" y="114.0" text-anchor="end" fill="#999" font-size="12">-30</text>
<line x1="70" y1="56.0" x2="1070" y2="56.0" stroke="#e3e3e3"/>
<text x="62" y="60.0" text-anchor="end" fill="#999" font-size="12">-20</text>
<line x1="70" y1="245.0" x2="1070" y2="245.0" stroke="#ef8b3f" stroke-width="1.5" stroke-dasharray="7 5" opacity="0.8"/>
<text x="1064" y="240.0" text-anchor="end" fill="#ef8b3f" font-size="12" font-weight="bold">squawk -55</text>
<line x1="70" y1="120.8" x2="1070" y2="120.8" stroke="#e8505b" stroke-width="1.5" stroke-dasharray="7 5" opacity="0.8"/>
<text x="1064" y="115.8" text-anchor="end" fill="#e8505b" font-size="12" font-weight="bold">cry -32</text>
<path d="M70.0,293.6 L72.8,284.2 L75.6,292.2 L78.3,286.3 L81.1,290.4 L83.9,288.5 L86.7,285.8 L89.4,290.5 L92.2,302.3 L95.0,295.3 L97.8,299.1 L100.6,299.3 L103.3,295.3 L106.1,306.2 L108.9,294.3 L111.7,289.7 L114.4,289.8 L117.2,289.7 L120.0,287.9 L122.8,291.3 L125.6,282.1 L128.3,288.8 L131.1,299.6 L133.9,292.9 L136.7,301.1 L139.4,295.4 L142.2,298.2 L145.0,304.0 L147.8,299.9 L150.6,290.0 L153.3,293.2 L156.1,289.2 L158.9,288.9 L161.7,293.3 L164.4,279.1 L167.2,289.5 L170.0,293.2 L172.8,294.6 L175.6,297.4 L178.3,296.6 L181.1,295.4 L183.9,305.2 L186.7,302.1 L189.4,291.7 L192.2,297.3 L195.0,287.0 L197.8,293.8 L200.6,291.2 L203.3,282.4 L206.1,285.5 L208.9,292.0 L211.7,291.9 L214.4,296.1 L217.2,296.3 L220.0,291.3 L222.8,307.4 L225.6,299.5 L228.3,297.5 L231.1,295.6 L233.9,289.7 L236.7,292.8 L239.4,292.1 L242.2,281.9 L245.0,280.6 L247.8,288.0 L250.6,281.9 L253.3,292.0 L256.1,282.8 L258.9,281.9 L261.7,290.2 L264.4,284.8 L267.2,279.4 L270.0,273.1 L272.8,264.1 L275.6,259.1 L278.3,259.2 L281.1,237.1 L283.9,236.1 L286.7,229.7 L289.4,224.6 L292.2,227.5 L295.0,216.4 L297.8,213.1 L300.6,218.1 L303.3,218.8 L306.1,212.1 L308.9,216.1 L311.7,204.8 L314.4,213.6 L317.2,217.0 L320.0,208.4 L322.8,214.7 L325.6,216.4 L328.3,224.8 L331.1,235.3 L333.9,240.4 L336.7,240.2 L339.4,260.6 L342.2,263.9 L345.0,271.8 L347.8,277.8 L350.6,271.3 L353.3,283.1 L356.1,285.0 L358.9,281.0 L361.7,278.6 L364.4,281.3 L367.2,278.2 L370.0,290.7 L372.8,285.1 L375.6,282.6 L378.3,295.0 L381.1,292.9 L383.9,301.2 L386.7,299.0 L389.4,294.1 L392.2,296.1 L395.0,302.2 L397.8,290.7 L400.6,291.0 L403.3,286.0 L406.1,281.8 L408.9,293.8 L411.7,283.8 L414.4,284.6 L417.2,288.7 L420.0,292.5 L422.8,295.8 L425.6,300.3 L428.3,290.1 L431.1,295.3 L433.9,300.3 L436.7,289.1 L439.4,292.7 L442.2,280.6 L445.0,281.1 L447.8,286.3 L450.6,282.5 L453.3,276.7 L456.1,283.5 L458.9,282.7 L461.7,288.1 L464.4,294.1 L467.2,279.8 L470.0,289.6 L472.8,288.2 L475.6,285.3 L478.3,283.7 L481.1,275.8 L483.9,270.4 L486.7,278.0 L489.4,272.0 L492.2,263.4 L495.0,270.4 L497.8,260.9 L500.6,272.8 L503.3,272.3 L506.1,264.2 L508.9,269.0 L511.7,272.2 L514.4,267.8 L517.2,268.8 L520.0,259.4 L522.8,247.0 L525.6,257.8 L528.3,241.9 L531.1,238.9 L533.9,237.3 L536.7,230.7 L539.4,240.5 L542.2,244.5 L545.0,235.3 L547.8,238.8 L550.6,242.4 L553.3,230.1 L556.1,237.3 L558.9,216.4 L561.7,207.9 L564.4,214.0 L567.2,202.3 L570.0,200.5 L572.8,200.9 L575.6,192.7 L578.3,199.0 L581.1,205.7 L583.9,183.8 L586.7,191.1 L589.4,182.7 L592.2,175.2 L595.0,184.4 L597.8,168.2 L600.6,164.2 L603.3,174.1 L606.1,165.9 L608.9,159.6 L611.7,161.9 L614.4,136.0 L617.2,144.4 L620.0,141.8 L622.8,122.8 L625.6,134.3 L628.3,130.5 L631.1,133.4 L633.9,149.6 L636.7,140.6 L639.4,129.4 L642.2,141.9 L645.0,118.4 L647.8,114.2 L650.6,109.5 L653.3,83.8 L656.1,100.2 L658.9,104.3 L661.7,99.5 L664.4,115.0 L667.2,118.3 L670.0,113.3 L672.8,133.2 L675.6,111.5 L678.3,100.0 L681.1,108.9 L683.9,88.6 L686.7,98.8 L689.4,100.7 L692.2,90.4 L695.0,107.8 L697.8,119.8 L700.6,107.4 L703.3,121.6 L706.1,111.6 L708.9,104.6 L711.7,125.6 L714.4,108.2 L717.2,112.9 L720.0,126.1 L722.8,124.3 L725.6,136.5 L728.3,144.9 L731.1,126.4 L733.9,138.3 L736.7,140.0 L739.4,125.3 L742.2,140.8 L745.0,130.1 L747.8,139.1 L750.6,162.1 L753.3,162.6 L756.1,167.5 L758.9,182.5 L761.7,175.3 L764.4,183.4 L767.2,185.6 L770.0,162.8 L772.8,176.6 L775.6,174.9 L778.3,176.5 L781.1,189.7 L783.9,189.4 L786.7,195.9 L789.4,217.6 L792.2,215.6 L795.0,215.1 L797.8,225.2 L800.6,212.9 L803.3,227.8 L806.1,226.0 L808.9,216.9 L811.7,225.4 L814.4,229.5 L817.2,230.4 L820.0,239.6 L822.8,235.6 L825.6,233.6 L828.3,253.3 L831.1,245.9 L833.9,253.2 L836.7,255.9 L839.4,253.8 L842.2,266.3 L845.0,268.8 L847.8,260.5 L850.6,262.7 L853.3,265.3 L856.1,259.2 L858.9,270.2 L861.7,257.3 L864.4,260.4 L867.2,272.2 L870.0,271.9 L872.8,278.4 L875.6,280.3 L878.3,279.4 L881.1,287.0 L883.9,293.5 L886.7,279.2 L889.4,285.0 L892.2,278.5 L895.0,278.8 L897.8,284.8 L900.6,274.1 L903.3,275.4 L906.1,282.6 L908.9,285.9 L911.7,287.2 L914.4,293.4 L917.2,284.5 L920.0,298.1 L922.8,299.5 L925.6,291.6 L928.3,294.5 L931.1,287.0 L933.9,289.4 L936.7,291.5 L939.4,285.3 L942.2,278.3 L945.0,289.1 L947.8,285.2 L950.6,292.8 L953.3,294.0 L956.1,287.0 L958.9,300.4 L961.7,300.8 L964.4,299.2 L967.2,296.9 L970.0,294.4 L972.8,290.1 L975.6,298.8 L978.3,286.9 L981.1,282.8 L983.9,288.8 L986.7,284.1 L989.4,294.7 L992.2,291.5 L995.0,289.4 L997.8,295.9 L1000.6,303.7 L1003.3,298.0 L1006.1,302.0 L1008.9,294.7 L1011.7,292.6 L1014.4,302.0 L1017.2,288.2 L1020.0,287.8 L1022.8,285.7 L1025.6,286.3 L1028.3,290.8 L1031.1,293.6 L1033.9,285.5 L1036.7,295.1 L1039.4,301.1 L1042.2,297.5 L1045.0,305.2 L1047.8,293.0 L1050.6,297.0 L1053.3,300.3 L1056.1,294.3 L1058.9,287.8 L1061.7,288.6 L1064.4,284.1 L1067.2,290.5" fill="none" stroke="#c7c7c7" stroke-width="1.3"/>
<path d="M70.0,293.6 L72.8,289.8 L75.6,290.2 L78.3,288.6 L81.1,288.9 L83.9,288.7 L86.7,287.6 L89.4,288.0 L92.2,290.1 L95.0,290.9 L97.8,292.1 L100.6,293.2 L103.3,293.5 L106.1,295.4 L108.9,295.0 L111.7,292.8 L114.4,291.6 L117.2,290.9 L120.0,289.7 L122.8,289.9 L125.6,286.8 L128.3,287.1 L131.1,289.0 L133.9,289.6 L136.7,291.3 L139.4,291.9 L142.2,292.9 L145.0,294.5 L147.8,295.3 L150.6,293.2 L153.3,293.2 L156.1,291.6 L158.9,290.5 L161.7,290.9 L164.4,286.2 L167.2,286.7 L170.0,287.7 L172.8,288.7 L175.6,290.0 L178.3,291.0 L181.1,291.7 L183.9,293.7 L186.7,294.9 L189.4,293.6 L192.2,294.2 L195.0,291.3 L197.8,291.7 L200.6,291.5 L203.3,287.9 L206.1,286.9 L208.9,287.7 L211.7,288.3 L214.4,289.5 L217.2,290.5 L220.0,290.6 L222.8,293.1 L225.6,294.1 L228.3,294.6 L231.1,294.7 L233.9,292.7 L236.7,292.7 L239.4,292.5 L242.2,288.2 L245.0,285.2 L247.8,285.6 L250.6,284.1 L253.3,285.3 L256.1,284.3 L258.9,283.3 L261.7,284.4 L264.4,284.4 L267.2,282.4 L270.0,278.7 L272.8,272.8 L275.6,267.3 L278.3,264.1 L281.1,253.3 L283.9,246.4 L286.7,239.7 L289.4,233.7 L292.2,231.2 L295.0,225.3 L297.8,220.4 L300.6,219.5 L303.3,219.2 L306.1,216.4 L308.9,216.3 L311.7,211.7 L314.4,212.0 L317.2,212.7 L320.0,211.0 L322.8,211.6 L325.6,212.3 L328.3,214.2 L331.1,217.3 L333.9,220.8 L336.7,223.7 L339.4,229.2 L342.2,234.4 L345.0,240.1 L347.8,245.7 L350.6,249.6 L353.3,254.6 L356.1,259.2 L358.9,262.4 L361.7,264.9 L364.4,267.3 L367.2,269.0 L370.0,272.2 L372.8,274.1 L375.6,275.4 L378.3,278.4 L381.1,280.5 L383.9,283.6 L386.7,285.9 L389.4,287.2 L392.2,288.5 L395.0,290.6 L397.8,290.6 L400.6,290.7 L403.3,288.8 L406.1,286.0 L408.9,287.2 L411.7,285.8 L414.4,285.3 L417.2,285.8 L420.0,286.8 L422.8,288.2 L425.6,290.0 L428.3,290.0 L431.1,290.8 L433.9,292.2 L436.7,291.0 L439.4,291.2 L442.2,287.0 L445.0,284.7 L447.8,284.9 L450.6,284.0 L453.3,281.1 L456.1,281.4 L458.9,281.6 L461.7,282.6 L464.4,284.3 L467.2,282.5 L470.0,283.6 L472.8,284.3 L475.6,284.4 L478.3,284.1 L481.1,280.8 L483.9,276.6 L486.7,276.8 L489.4,274.9 L492.2,270.3 L495.0,270.3 L497.8,266.5 L500.6,267.5 L503.3,268.2 L506.1,266.6 L508.9,267.0 L511.7,267.7 L514.4,267.8 L517.2,267.9 L520.0,264.5 L522.8,257.5 L525.6,257.6 L528.3,251.3 L531.1,246.3 L533.9,242.7 L536.7,237.9 L539.4,238.3 L542.2,239.2 L545.0,237.6 L547.8,237.8 L550.6,238.5 L553.3,235.1 L556.1,235.5 L558.9,227.8 L561.7,219.8 L564.4,217.5 L567.2,211.4 L570.0,207.0 L572.8,204.6 L575.6,199.8 L578.3,199.5 L581.1,200.4 L583.9,193.8 L586.7,192.7 L589.4,188.7 L592.2,183.3 L595.0,183.5 L597.8,177.3 L600.6,172.1 L603.3,172.4 L606.1,169.8 L608.9,165.7 L611.7,164.2 L614.4,152.9 L617.2,149.5 L620.0,146.4 L622.8,137.0 L625.6,135.9 L628.3,133.7 L631.1,133.6 L633.9,136.0 L636.7,136.7 L639.4,133.8 L642.2,135.0 L645.0,128.4 L647.8,122.7 L650.6,117.4 L653.3,104.0 L656.1,102.5 L658.9,102.8 L661.7,101.5 L664.4,103.5 L667.2,105.7 L670.0,106.9 L672.8,110.8 L675.6,110.9 L678.3,106.5 L681.1,106.9 L683.9,99.6 L686.7,99.3 L689.4,99.5 L692.2,95.9 L695.0,97.7 L697.8,101.0 L700.6,101.9 L703.3,104.9 L706.1,105.9 L708.9,105.4 L711.7,108.4 L714.4,108.3 L717.2,109.0 L720.0,111.6 L722.8,113.5 L725.6,116.9 L728.3,121.1 L731.1,121.9 L733.9,124.4 L736.7,126.7 L739.4,126.1 L742.2,128.3 L745.0,128.6 L747.8,130.2 L750.6,135.0 L753.3,139.1 L756.1,143.4 L758.9,149.2 L761.7,153.1 L764.4,157.7 L767.2,161.9 L770.0,162.0 L772.8,164.2 L775.6,165.8 L778.3,167.4 L781.1,170.7 L783.9,173.5 L786.7,176.9 L789.4,183.0 L792.2,187.9 L795.0,192.0 L797.8,197.0 L800.6,199.3 L803.3,203.6 L806.1,207.0 L808.9,208.5 L811.7,211.0 L814.4,213.8 L817.2,216.3 L820.0,219.8 L822.8,222.1 L825.6,223.9 L828.3,228.3 L831.1,230.9 L833.9,234.3 L836.7,237.5 L839.4,239.9 L842.2,243.9 L845.0,247.6 L847.8,249.6 L850.6,251.5 L853.3,253.6 L856.1,254.4 L858.9,256.8 L861.7,256.9 L864.4,257.4 L867.2,259.6 L870.0,261.5 L872.8,264.0 L875.6,266.5 L878.3,268.4 L881.1,271.2 L883.9,274.5 L886.7,275.2 L889.4,276.7 L892.2,277.0 L895.0,277.2 L897.8,278.4 L900.6,276.7 L903.3,276.2 L906.1,277.1 L908.9,278.4 L911.7,279.8 L914.4,281.8 L917.2,282.2 L920.0,284.6 L922.8,286.8 L925.6,287.6 L928.3,288.6 L931.1,288.0 L933.9,288.2 L936.7,288.7 L939.4,287.3 L942.2,283.7 L945.0,284.5 L947.8,284.6 L950.6,285.9 L953.3,287.1 L956.1,287.0 L958.9,289.0 L961.7,290.8 L964.4,292.1 L967.2,292.8 L970.0,293.0 L972.8,291.9 L975.6,292.9 L978.3,290.5 L981.1,287.4 L983.9,287.6 L986.7,286.2 L989.4,287.5 L992.2,288.1 L995.0,288.3 L997.8,289.4 L1000.6,291.6 L1003.3,292.5 L1006.1,293.9 L1008.9,294.0 L1011.7,293.4 L1014.4,294.7 L1017.2,292.1 L1020.0,290.4 L1022.8,288.5 L1025.6,287.6 L1028.3,288.1 L1031.1,288.9 L1033.9,287.6 L1036.7,288.7 L1039.4,290.5 L1042.2,291.6 L1045.0,293.6 L1047.8,293.4 L1050.6,293.9 L1053.3,294.9 L1056.1,294.6 L1058.9,291.9 L1061.7,290.6 L1064.4,288.0 L1067.2,288.4" fill="none" stroke="#7a86c2" stroke-width="1.6" stroke-dasharray="5 4"/>
<path d="M70.0,272.1 L72.8,272.2 L75.6,272.3 L78.3,272.4 L81.1,272.5 L83.9,272.5 L86.7,272.6 L89.4,272.7 L92.2,272.8 L95.0,272.9 L97.8,273.0 L100.6,273.1 L103.3,273.2 L106.1,273.3 L108.9,273.4 L111.7,273.5 L114.4,273.6 L117.2,273.7 L120.0,273.7 L122.8,273.8 L125.6,273.9 L128.3,273.9 L131.1,274.0 L133.9,274.1 L136.7,274.2 L139.4,274.3 L142.2,274.4 L145.0,274.5 L147.8,274.6 L150.6,274.7 L153.3,274.8 L156.1,274.8 L158.9,274.9 L161.7,275.0 L164.4,275.1 L167.2,275.1 L170.0,275.2 L172.8,275.2 L175.6,275.3 L178.3,275.4 L181.1,275.5 L183.9,275.6 L186.7,275.7 L189.4,275.8 L192.2,275.9 L195.0,275.9 L197.8,276.0 L200.6,276.1 L203.3,276.1 L206.1,276.2 L208.9,276.3 L211.7,276.3 L214.4,276.4 L217.2,276.5 L220.0,276.5 L222.8,276.6 L225.6,276.7 L228.3,276.8 L231.1,276.9 L233.9,277.0 L236.7,277.0 L239.4,277.1 L242.2,277.2 L245.0,277.2 L247.8,277.2 L250.6,277.3 L253.3,277.3 L256.1,277.4 L258.9,277.4 L261.7,277.4 L264.4,277.5 L267.2,277.5 L270.0,277.5 L272.8,277.5 L275.6,277.4 L278.3,277.4 L281.1,277.4 L283.9,277.4 L286.7,277.4 L289.4,277.4 L292.2,277.4 L295.0,277.4 L297.8,277.4 L300.6,277.4 L303.3,277.4 L306.1,277.4 L308.9,277.3 L311.7,277.3 L314.4,277.3 L317.2,277.3 L320.0,277.3 L322.8,277.3 L325.6,277.3 L328.3,277.3 L331.1,277.3 L333.9,277.3 L336.7,277.3 L339.4,277.3 L342.2,277.3 L345.0,277.3 L347.8,277.3 L350.6,277.3 L353.3,277.3 L356.1,277.3 L358.9,277.2 L361.7,277.2 L364.4,277.2 L367.2,277.2 L370.0,277.1 L372.8,277.1 L375.6,277.1 L378.3,277.1 L381.1,277.1 L383.9,277.2 L386.7,277.2 L389.4,277.3 L392.2,277.3 L395.0,277.4 L397.8,277.4 L400.6,277.5 L403.3,277.6 L406.1,277.6 L408.9,277.7 L411.7,277.7 L414.4,277.7 L417.2,277.8 L420.0,277.8 L422.8,277.9 L425.6,277.9 L428.3,278.0 L431.1,278.1 L433.9,278.1 L436.7,278.2 L439.4,278.3 L442.2,278.3 L445.0,278.3 L447.8,278.4 L450.6,278.4 L453.3,278.4 L456.1,278.4 L458.9,278.4 L461.7,278.5 L464.4,278.5 L467.2,278.5 L470.0,278.5 L472.8,278.6 L475.6,278.6 L478.3,278.6 L481.1,278.6 L483.9,278.6 L486.7,278.6 L489.4,278.6 L492.2,278.6 L495.0,278.5 L497.8,278.5 L500.6,278.5 L503.3,278.4 L506.1,278.4 L508.9,278.4 L511.7,278.4 L514.4,278.3 L517.2,278.3 L520.0,278.3 L522.8,278.3 L525.6,278.3 L528.3,278.3 L531.1,278.3 L533.9,278.2 L536.7,278.2 L539.4,278.2 L542.2,278.2 L545.0,278.2 L547.8,278.2 L550.6,278.2 L553.3,278.2 L556.1,278.2 L558.9,278.2 L561.7,278.2 L564.4,278.2 L567.2,278.2 L570.0,278.2 L572.8,278.2 L575.6,278.2 L578.3,278.2 L581.1,278.2 L583.9,278.1 L586.7,278.1 L589.4,278.1 L592.2,278.1 L595.0,278.1 L597.8,278.1 L600.6,278.1 L603.3,278.1 L606.1,278.1 L608.9,278.1 L611.7,278.1 L614.4,278.1 L617.2,278.1 L620.0,278.1 L622.8,278.1 L625.6,278.1 L628.3,278.1 L631.1,278.1 L633.9,278.1 L636.7,278.0 L639.4,278.0 L642.2,278.0 L645.0,278.0 L647.8,278.0 L650.6,278.0 L653.3,278.0 L656.1,278.0 L658.9,278.0 L661.7,278.0 L664.4,278.0 L667.2,278.0 L670.0,278.0 L672.8,278.0 L675.6,278.0 L678.3,278.0 L681.1,278.0 L683.9,278.0 L686.7,277.9 L689.4,277.9 L692.2,277.9 L695.0,277.9 L697.8,277.9 L700.6,277.9 L703.3,277.9 L706.1,277.9 L708.9,277.9 L711.7,277.9 L714.4,277.9 L717.2,277.9 L720.0,277.9 L722.8,277.9 L725.6,277.9 L728.3,277.9 L731.1,277.9 L733.9,277.9 L736.7,277.9 L739.4,277.8 L742.2,277.8 L745.0,277.8 L747.8,277.8 L750.6,277.8 L753.3,277.8 L756.1,277.8 L758.9,277.8 L761.7,277.8 L764.4,277.8 L767.2,277.8 L770.0,277.8 L772.8,277.8 L775.6,277.8 L778.3,277.8 L781.1,277.8 L783.9,277.8 L786.7,277.8 L789.4,277.7 L792.2,277.7 L795.0,277.7 L797.8,277.7 L800.6,277.7 L803.3,277.7 L806.1,277.7 L808.9,277.7 L811.7,277.7 L814.4,277.7 L817.2,277.7 L820.0,277.7 L822.8,277.7 L825.6,277.7 L828.3,277.7 L831.1,277.7 L833.9,277.7 L836.7,277.7 L839.4,277.7 L842.2,277.6 L845.0,277.6 L847.8,277.6 L850.6,277.6 L853.3,277.6 L856.1,277.6 L858.9,277.6 L861.7,277.6 L864.4,277.6 L867.2,277.6 L870.0,277.6 L872.8,277.6 L875.6,277.6 L878.3,277.5 L881.1,277.5 L883.9,277.5 L886.7,277.5 L889.4,277.5 L892.2,277.5 L895.0,277.5 L897.8,277.5 L900.6,277.5 L903.3,277.5 L906.1,277.5 L908.9,277.5 L911.7,277.5 L914.4,277.5 L917.2,277.5 L920.0,277.6 L922.8,277.6 L925.6,277.7 L928.3,277.7 L931.1,277.8 L933.9,277.8 L936.7,277.9 L939.4,277.9 L942.2,277.9 L945.0,278.0 L947.8,278.0 L950.6,278.1 L953.3,278.1 L956.1,278.1 L958.9,278.2 L961.7,278.3 L964.4,278.3 L967.2,278.4 L970.0,278.5 L972.8,278.5 L975.6,278.6 L978.3,278.7 L981.1,278.7 L983.9,278.8 L986.7,278.8 L989.4,278.8 L992.2,278.9 L995.0,278.9 L997.8,279.0 L1000.6,279.0 L1003.3,279.1 L1006.1,279.2 L1008.9,279.3 L1011.7,279.3 L1014.4,279.4 L1017.2,279.5 L1020.0,279.5 L1022.8,279.6 L1025.6,279.6 L1028.3,279.7 L1031.1,279.7 L1033.9,279.7 L1036.7,279.8 L1039.4,279.8 L1042.2,279.9 L1045.0,280.0 L1047.8,280.0 L1050.6,280.1 L1053.3,280.2 L1056.1,280.3 L1058.9,280.3 L1061.7,280.4 L1064.4,280.4 L1067.2,280.4" fill="none" stroke="#8a8a8a" stroke-width="2.2"/>
<path d="M70.0,272.0 L72.8,272.0 L75.6,272.0 L78.3,272.0 L81.1,272.0 L83.9,272.0 L86.7,272.0 L89.4,272.0 L92.2,272.0 L95.0,272.0 L97.8,272.0 L100.6,272.0 L103.3,272.0 L106.1,272.0 L108.9,272.0 L111.7,274.7 L114.4,274.7 L117.2,274.7 L120.0,274.7 L122.8,274.7 L125.6,274.7 L128.3,274.7 L131.1,274.7 L133.9,274.7 L136.7,274.7 L139.4,274.7 L142.2,274.7 L145.0,274.7 L147.8,274.7 L150.6,274.7 L153.3,274.7 L156.1,274.7 L158.9,274.7 L161.7,274.7 L164.4,274.7 L167.2,274.7 L170.0,274.7 L172.8,274.7 L175.6,274.7 L178.3,274.7 L181.1,274.7 L183.9,274.7 L186.7,274.7 L189.4,274.7 L192.2,274.7 L195.0,274.7 L197.8,274.7 L200.6,274.7 L203.3,277.4 L206.1,277.4 L208.9,277.4 L211.7,277.4 L214.4,277.4 L217.2,277.4 L220.0,277.4 L222.8,277.4 L225.6,277.4 L228.3,277.4 L231.1,277.4 L233.9,277.4 L236.7,277.4 L239.4,277.4 L242.2,277.4 L245.0,277.4 L247.8,277.4 L250.6,277.4 L253.3,277.4 L256.1,277.4 L258.9,277.4 L261.7,277.4 L264.4,277.4 L267.2,277.4 L270.0,277.4 L272.8,277.4 L275.6,277.4 L278.3,277.4 L281.1,263.9 L283.9,253.1 L286.7,246.6 L289.4,239.6 L292.2,233.7 L295.0,231.0 L297.8,225.0 L300.6,220.2 L303.3,219.6 L306.1,219.1 L308.9,216.4 L311.7,216.4 L314.4,212.1 L317.2,212.1 L320.0,212.1 L322.8,211.5 L325.6,211.5 L328.3,212.1 L331.1,214.2 L333.9,217.5 L336.7,220.7 L339.4,223.9 L342.2,229.3 L345.0,234.2 L347.8,240.1 L350.6,245.5 L353.3,249.3 L356.1,254.7 L358.9,259.0 L361.7,262.3 L364.4,265.0 L367.2,277.4 L370.0,277.4 L372.8,277.4 L375.6,277.4 L378.3,277.4 L381.1,277.4 L383.9,277.4 L386.7,277.4 L389.4,277.4 L392.2,277.4 L395.0,277.4 L397.8,277.4 L400.6,277.4 L403.3,277.4 L406.1,277.4 L408.9,277.4 L411.7,277.4 L414.4,277.4 L417.2,277.4 L420.0,277.4 L422.8,277.4 L425.6,277.4 L428.3,277.4 L431.1,277.4 L433.9,277.4 L436.7,277.4 L439.4,277.4 L442.2,277.4 L445.0,277.4 L447.8,277.4 L450.6,277.4 L453.3,277.4 L456.1,277.4 L458.9,277.4 L461.7,277.4 L464.4,277.4 L467.2,277.4 L470.0,277.4 L472.8,277.4 L475.6,277.4 L478.3,277.4 L481.1,277.4 L483.9,277.4 L486.7,277.4 L489.4,277.4 L492.2,277.4 L495.0,277.4 L497.8,277.4 L500.6,267.7 L503.3,267.7 L506.1,267.7 L508.9,267.1 L511.7,267.1 L514.4,277.4 L517.2,277.4 L520.0,277.4 L522.8,264.4 L525.6,257.4 L528.3,257.4 L531.1,251.5 L533.9,246.1 L536.7,242.8 L539.4,238.5 L542.2,238.5 L545.0,238.5 L547.8,238.0 L550.6,238.0 L553.3,238.0 L556.1,235.3 L558.9,235.3 L561.7,227.7 L564.4,219.6 L567.2,217.5 L570.0,211.5 L572.8,207.2 L575.6,204.5 L578.3,199.6 L581.1,199.6 L583.9,199.6 L586.7,193.7 L589.4,192.6 L592.2,188.8 L595.0,183.4 L597.8,183.4 L600.6,177.5 L603.3,172.6 L606.1,172.1 L608.9,169.9 L611.7,165.6 L614.4,164.0 L617.2,152.7 L620.0,149.4 L622.8,146.2 L625.6,137.0 L628.3,135.9 L631.1,133.8 L633.9,133.8 L636.7,135.9 L639.4,135.9 L642.2,134.8 L645.0,133.8 L647.8,128.4 L650.6,123.0 L653.3,117.6 L656.1,104.1 L658.9,103.0 L661.7,102.4 L664.4,103.0 L667.2,103.5 L670.0,105.7 L672.8,106.8 L675.6,110.5 L678.3,110.5 L681.1,106.8 L683.9,106.8 L686.7,99.7 L689.4,99.7 L692.2,99.2 L695.0,97.6 L697.8,97.6 L700.6,100.8 L703.3,101.9 L706.1,105.1 L708.9,105.1 L711.7,105.7 L714.4,108.4 L717.2,108.4 L720.0,108.9 L722.8,111.6 L725.6,113.2 L728.3,117.0 L731.1,121.3 L733.9,121.9 L736.7,124.6 L739.4,126.2 L742.2,126.7 L745.0,128.4 L747.8,128.4 L750.6,130.0 L753.3,134.8 L756.1,139.2 L758.9,143.5 L761.7,149.4 L764.4,153.2 L767.2,157.5 L770.0,161.8 L772.8,161.8 L775.6,164.0 L778.3,165.6 L781.1,167.2 L783.9,170.5 L786.7,173.7 L789.4,177.0 L792.2,182.9 L795.0,187.8 L797.8,192.1 L800.6,196.9 L803.3,199.1 L806.1,203.4 L808.9,207.2 L811.7,208.3 L814.4,211.0 L817.2,213.7 L820.0,216.4 L822.8,219.6 L825.6,222.3 L828.3,223.9 L831.1,228.3 L833.9,231.0 L836.7,234.2 L839.4,237.4 L842.2,240.1 L845.0,243.9 L847.8,247.7 L850.6,249.3 L853.3,251.5 L856.1,253.6 L858.9,254.2 L861.7,256.9 L864.4,256.9 L867.2,257.4 L870.0,259.6 L872.8,261.7 L875.6,263.9 L878.3,266.6 L881.1,277.4 L883.9,277.4 L886.7,277.4 L889.4,277.4 L892.2,277.4 L895.0,277.4 L897.8,277.4 L900.6,277.4 L903.3,277.4 L906.1,277.4 L908.9,277.4 L911.7,277.4 L914.4,277.4 L917.2,277.4 L920.0,277.4 L922.8,277.4 L925.6,277.4 L928.3,277.4 L931.1,277.4 L933.9,277.4 L936.7,277.4 L939.4,277.4 L942.2,277.4 L945.0,277.4 L947.8,277.4 L950.6,277.4 L953.3,277.4 L956.1,277.4 L958.9,277.4 L961.7,277.4 L964.4,277.4 L967.2,277.4 L970.0,277.4 L972.8,277.4 L975.6,277.4 L978.3,277.4 L981.1,277.4 L983.9,277.4 L986.7,280.1 L989.4,280.1 L992.2,280.1 L995.0,280.1 L997.8,280.1 L1000.6,280.1 L1003.3,280.1 L1006.1,280.1 L1008.9,280.1 L1011.7,280.1 L1014.4,280.1 L1017.2,280.1 L1020.0,280.1 L1022.8,280.1 L1025.6,280.1 L1028.3,280.1 L1031.1,280.1 L1033.9,280.1 L1036.7,280.1 L1039.4,280.1 L1042.2,280.1 L1045.0,280.1 L1047.8,280.1 L1050.6,280.1 L1053.3,280.1 L1056.1,280.1 L1058.9,280.1 L1061.7,280.1 L1064.4,280.1 L1067.2,280.1" fill="none" stroke="#2f74d0" stroke-width="2.6"/>
<text x="70" y="374" fill="#222" font-size="19" font-weight="bold">Events (long window) — peak-hold envelope</text>
<text x="1070" y="374" text-anchor="end" fill="#888" font-size="13">dB · 2 s/sample · 4 s hold</text>
<rect x="70" y="396" width="1000" height="270" fill="#fafafa" stroke="#ddd"/>
<line x1="70" y1="666.0" x2="1070" y2="666.0" stroke="#e3e3e3"/>
<text x="62" y="670.0" text-anchor="end" fill="#999" font-size="12">-70</text>
<line x1="70" y1="612.0" x2="1070" y2="612.0" stroke="#e3e3e3"/>
<text x="62" y="616.0" text-anchor="end" fill="#999" font-size="12">-60</text>
<line x1="70" y1="558.0" x2="1070" y2="558.0" stroke="#e3e3e3"/>
<text x="62" y="562.0" text-anchor="end" fill="#999" font-size="12">-50</text>
<line x1="70" y1="504.0" x2="1070" y2="504.0" stroke="#e3e3e3"/>
<text x="62" y="508.0" text-anchor="end" fill="#999" font-size="12">-40</text>
<line x1="70" y1="450.0" x2="1070" y2="450.0" stroke="#e3e3e3"/>
<text x="62" y="454.0" text-anchor="end" fill="#999" font-size="12">-30</text>
<line x1="70" y1="396.0" x2="1070" y2="396.0" stroke="#e3e3e3"/>
<text x="62" y="400.0" text-anchor="end" fill="#999" font-size="12">-20</text>
<path d="M70.0,633.6 L72.8,624.2 L75.6,632.2 L78.3,626.3 L81.1,630.4 L83.9,628.5 L86.7,625.8 L89.4,630.5 L92.2,642.3 L95.0,635.3 L97.8,639.1 L100.6,639.3 L103.3,635.3 L106.1,646.2 L108.9,634.3 L111.7,629.7 L114.4,629.8 L117.2,629.7 L120.0,627.9 L122.8,631.3 L125.6,622.1 L128.3,628.8 L131.1,639.6 L133.9,632.9 L136.7,641.1 L139.4,635.4 L142.2,638.2 L145.0,644.0 L147.8,639.9 L150.6,630.0 L153.3,633.2 L156.1,629.2 L158.9,628.9 L161.7,633.3 L164.4,619.1 L167.2,629.5 L170.0,633.2 L172.8,634.6 L175.6,637.4 L178.3,636.6 L181.1,635.4 L183.9,645.2 L186.7,642.1 L189.4,631.7 L192.2,637.3 L195.0,627.0 L197.8,633.8 L200.6,631.2 L203.3,622.4 L206.1,625.5 L208.9,632.0 L211.7,631.9 L214.4,636.1 L217.2,636.3 L220.0,631.3 L222.8,647.4 L225.6,639.5 L228.3,637.5 L231.1,635.6 L233.9,629.7 L236.7,632.8 L239.4,632.1 L242.2,621.9 L245.0,620.6 L247.8,628.0 L250.6,621.9 L253.3,632.0 L256.1,622.8 L258.9,621.9 L261.7,630.2 L264.4,624.8 L267.2,619.4 L270.0,613.1 L272.8,604.1 L275.6,599.1 L278.3,599.2 L281.1,577.1 L283.9,576.1 L286.7,569.7 L289.4,564.6 L292.2,567.5 L295.0,556.4 L297.8,553.1 L300.6,558.1 L303.3,558.8 L306.1,552.1 L308.9,556.1 L311.7,544.8 L314.4,553.6 L317.2,557.0 L320.0,548.4 L322.8,554.7 L325.6,556.4 L328.3,564.8 L331.1,575.3 L333.9,580.4 L336.7,580.2 L339.4,600.6 L342.2,603.9 L345.0,611.8 L347.8,617.8 L350.6,611.3 L353.3,623.1 L356.1,625.0 L358.9,621.0 L361.7,618.6 L364.4,621.3 L367.2,618.2 L370.0,630.7 L372.8,625.1 L375.6,622.6 L378.3,635.0 L381.1,632.9 L383.9,641.2 L386.7,639.0 L389.4,634.1 L392.2,636.1 L395.0,642.2 L397.8,630.7 L400.6,631.0 L403.3,626.0 L406.1,621.8 L408.9,633.8 L411.7,623.8 L414.4,624.6 L417.2,628.7 L420.0,632.5 L422.8,635.8 L425.6,640.3 L428.3,630.1 L431.1,635.3 L433.9,640.3 L436.7,629.1 L439.4,632.7 L442.2,620.6 L445.0,621.1 L447.8,626.3 L450.6,622.5 L453.3,616.7 L456.1,623.5 L458.9,622.7 L461.7,628.1 L464.4,634.1 L467.2,619.8 L470.0,629.6 L472.8,628.2 L475.6,625.3 L478.3,623.7 L481.1,615.8 L483.9,610.4 L486.7,618.0 L489.4,612.0 L492.2,603.4 L495.0,610.4 L497.8,600.9 L500.6,612.8 L503.3,612.3 L506.1,604.2 L508.9,609.0 L511.7,612.2 L514.4,607.8 L517.2,608.8 L520.0,599.4 L522.8,587.0 L525.6,597.8 L528.3,581.9 L531.1,578.9 L533.9,577.3 L536.7,570.7 L539.4,580.5 L542.2,584.5 L545.0,575.3 L547.8,578.8 L550.6,582.4 L553.3,570.1 L556.1,577.3 L558.9,556.4 L561.7,547.9 L564.4,554.0 L567.2,542.3 L570.0,540.5 L572.8,540.9 L575.6,532.7 L578.3,539.0 L581.1,545.7 L583.9,523.8 L586.7,531.1 L589.4,522.7 L592.2,515.2 L595.0,524.4 L597.8,508.2 L600.6,504.2 L603.3,514.1 L606.1,505.9 L608.9,499.6 L611.7,501.9 L614.4,476.0 L617.2,484.4 L620.0,481.8 L622.8,462.8 L625.6,474.3 L628.3,470.5 L631.1,473.4 L633.9,489.6 L636.7,480.6 L639.4,469.4 L642.2,481.9 L645.0,458.4 L647.8,454.2 L650.6,449.5 L653.3,423.8 L656.1,440.2 L658.9,444.3 L661.7,439.5 L664.4,455.0 L667.2,458.3 L670.0,453.3 L672.8,473.2 L675.6,451.5 L678.3,440.0 L681.1,448.9 L683.9,428.6 L686.7,438.8 L689.4,440.7 L692.2,430.4 L695.0,447.8 L697.8,459.8 L700.6,447.4 L703.3,461.6 L706.1,451.6 L708.9,444.6 L711.7,465.6 L714.4,448.2 L717.2,452.9 L720.0,466.1 L722.8,464.3 L725.6,476.5 L728.3,484.9 L731.1,466.4 L733.9,478.3 L736.7,480.0 L739.4,465.3 L742.2,480.8 L745.0,470.1 L747.8,479.1 L750.6,502.1 L753.3,502.6 L756.1,507.5 L758.9,522.5 L761.7,515.3 L764.4,523.4 L767.2,525.6 L770.0,502.8 L772.8,516.6 L775.6,514.9 L778.3,516.5 L781.1,529.7 L783.9,529.4 L786.7,535.9 L789.4,557.6 L792.2,555.6 L795.0,555.1 L797.8,565.2 L800.6,552.9 L803.3,567.8 L806.1,566.0 L808.9,556.9 L811.7,565.4 L814.4,569.5 L817.2,570.4 L820.0,579.6 L822.8,575.6 L825.6,573.6 L828.3,593.3 L831.1,585.9 L833.9,593.2 L836.7,595.9 L839.4,593.8 L842.2,606.3 L845.0,608.8 L847.8,600.5 L850.6,602.7 L853.3,605.3 L856.1,599.2 L858.9,610.2 L861.7,597.3 L864.4,600.4 L867.2,612.2 L870.0,611.9 L872.8,618.4 L875.6,620.3 L878.3,619.4 L881.1,627.0 L883.9,633.5 L886.7,619.2 L889.4,625.0 L892.2,618.5 L895.0,618.8 L897.8,624.8 L900.6,614.1 L903.3,615.4 L906.1,622.6 L908.9,625.9 L911.7,627.2 L914.4,633.4 L917.2,624.5 L920.0,638.1 L922.8,639.5 L925.6,631.6 L928.3,634.5 L931.1,627.0 L933.9,629.4 L936.7,631.5 L939.4,625.3 L942.2,618.3 L945.0,629.1 L947.8,625.2 L950.6,632.8 L953.3,634.0 L956.1,627.0 L958.9,640.4 L961.7,640.8 L964.4,639.2 L967.2,636.9 L970.0,634.4 L972.8,630.1 L975.6,638.8 L978.3,626.9 L981.1,622.8 L983.9,628.8 L986.7,624.1 L989.4,634.7 L992.2,631.5 L995.0,629.4 L997.8,635.9 L1000.6,643.7 L1003.3,638.0 L1006.1,642.0 L1008.9,634.7 L1011.7,632.6 L1014.4,642.0 L1017.2,628.2 L1020.0,627.8 L1022.8,625.7 L1025.6,626.3 L1028.3,630.8 L1031.1,633.6 L1033.9,625.5 L1036.7,635.1 L1039.4,641.1 L1042.2,637.5 L1045.0,645.2 L1047.8,633.0 L1050.6,637.0 L1053.3,640.3 L1056.1,634.3 L1058.9,627.8 L1061.7,628.6 L1064.4,624.1 L1067.2,630.5" fill="none" stroke="#d7d7d7" stroke-width="1.2"/>
<path d="M70.0,612.1 L72.8,612.2 L75.6,612.3 L78.3,612.4 L81.1,612.5 L83.9,612.5 L86.7,612.6 L89.4,612.7 L92.2,612.8 L95.0,612.9 L97.8,613.0 L100.6,613.1 L103.3,613.2 L106.1,613.3 L108.9,613.4 L111.7,613.5 L114.4,613.6 L117.2,613.7 L120.0,613.7 L122.8,613.8 L125.6,613.9 L128.3,613.9 L131.1,614.0 L133.9,614.1 L136.7,614.2 L139.4,614.3 L142.2,614.4 L145.0,614.5 L147.8,614.6 L150.6,614.7 L153.3,614.8 L156.1,614.8 L158.9,614.9 L161.7,615.0 L164.4,615.1 L167.2,615.1 L170.0,615.2 L172.8,615.2 L175.6,615.3 L178.3,615.4 L181.1,615.5 L183.9,615.6 L186.7,615.7 L189.4,615.8 L192.2,615.9 L195.0,615.9 L197.8,616.0 L200.6,616.1 L203.3,616.1 L206.1,616.2 L208.9,616.3 L211.7,616.3 L214.4,616.4 L217.2,616.5 L220.0,616.5 L222.8,616.6 L225.6,616.7 L228.3,616.8 L231.1,616.9 L233.9,617.0 L236.7,617.0 L239.4,617.1 L242.2,617.2 L245.0,617.2 L247.8,617.2 L250.6,617.3 L253.3,617.3 L256.1,617.4 L258.9,617.4 L261.7,617.4 L264.4,617.5 L267.2,617.5 L270.0,617.5 L272.8,617.5 L275.6,617.4 L278.3,617.4 L281.1,617.4 L283.9,617.4 L286.7,617.4 L289.4,617.4 L292.2,617.4 L295.0,617.4 L297.8,617.4 L300.6,617.4 L303.3,617.4 L306.1,617.4 L308.9,617.3 L311.7,617.3 L314.4,617.3 L317.2,617.3 L320.0,617.3 L322.8,617.3 L325.6,617.3 L328.3,617.3 L331.1,617.3 L333.9,617.3 L336.7,617.3 L339.4,617.3 L342.2,617.3 L345.0,617.3 L347.8,617.3 L350.6,617.3 L353.3,617.3 L356.1,617.3 L358.9,617.2 L361.7,617.2 L364.4,617.2 L367.2,617.2 L370.0,617.1 L372.8,617.1 L375.6,617.1 L378.3,617.1 L381.1,617.1 L383.9,617.2 L386.7,617.2 L389.4,617.3 L392.2,617.3 L395.0,617.4 L397.8,617.4 L400.6,617.5 L403.3,617.6 L406.1,617.6 L408.9,617.7 L411.7,617.7 L414.4,617.7 L417.2,617.8 L420.0,617.8 L422.8,617.9 L425.6,617.9 L428.3,618.0 L431.1,618.1 L433.9,618.1 L436.7,618.2 L439.4,618.3 L442.2,618.3 L445.0,618.3 L447.8,618.4 L450.6,618.4 L453.3,618.4 L456.1,618.4 L458.9,618.4 L461.7,618.5 L464.4,618.5 L467.2,618.5 L470.0,618.5 L472.8,618.6 L475.6,618.6 L478.3,618.6 L481.1,618.6 L483.9,618.6 L486.7,618.6 L489.4,618.6 L492.2,618.6 L495.0,618.5 L497.8,618.5 L500.6,618.5 L503.3,618.4 L506.1,618.4 L508.9,618.4 L511.7,618.4 L514.4,618.3 L517.2,618.3 L520.0,618.3 L522.8,618.3 L525.6,618.3 L528.3,618.3 L531.1,618.3 L533.9,618.2 L536.7,618.2 L539.4,618.2 L542.2,618.2 L545.0,618.2 L547.8,618.2 L550.6,618.2 L553.3,618.2 L556.1,618.2 L558.9,618.2 L561.7,618.2 L564.4,618.2 L567.2,618.2 L570.0,618.2 L572.8,618.2 L575.6,618.2 L578.3,618.2 L581.1,618.2 L583.9,618.1 L586.7,618.1 L589.4,618.1 L592.2,618.1 L595.0,618.1 L597.8,618.1 L600.6,618.1 L603.3,618.1 L606.1,618.1 L608.9,618.1 L611.7,618.1 L614.4,618.1 L617.2,618.1 L620.0,618.1 L622.8,618.1 L625.6,618.1 L628.3,618.1 L631.1,618.1 L633.9,618.1 L636.7,618.0 L639.4,618.0 L642.2,618.0 L645.0,618.0 L647.8,618.0 L650.6,618.0 L653.3,618.0 L656.1,618.0 L658.9,618.0 L661.7,618.0 L664.4,618.0 L667.2,618.0 L670.0,618.0 L672.8,618.0 L675.6,618.0 L678.3,618.0 L681.1,618.0 L683.9,618.0 L686.7,617.9 L689.4,617.9 L692.2,617.9 L695.0,617.9 L697.8,617.9 L700.6,617.9 L703.3,617.9 L706.1,617.9 L708.9,617.9 L711.7,617.9 L714.4,617.9 L717.2,617.9 L720.0,617.9 L722.8,617.9 L725.6,617.9 L728.3,617.9 L731.1,617.9 L733.9,617.9 L736.7,617.9 L739.4,617.8 L742.2,617.8 L745.0,617.8 L747.8,617.8 L750.6,617.8 L753.3,617.8 L756.1,617.8 L758.9,617.8 L761.7,617.8 L764.4,617.8 L767.2,617.8 L770.0,617.8 L772.8,617.8 L775.6,617.8 L778.3,617.8 L781.1,617.8 L783.9,617.8 L786.7,617.8 L789.4,617.7 L792.2,617.7 L795.0,617.7 L797.8,617.7 L800.6,617.7 L803.3,617.7 L806.1,617.7 L808.9,617.7 L811.7,617.7 L814.4,617.7 L817.2,617.7 L820.0,617.7 L822.8,617.7 L825.6,617.7 L828.3,617.7 L831.1,617.7 L833.9,617.7 L836.7,617.7 L839.4,617.7 L842.2,617.6 L845.0,617.6 L847.8,617.6 L850.6,617.6 L853.3,617.6 L856.1,617.6 L858.9,617.6 L861.7,617.6 L864.4,617.6 L867.2,617.6 L870.0,617.6 L872.8,617.6 L875.6,617.6 L878.3,617.5 L881.1,617.5 L883.9,617.5 L886.7,617.5 L889.4,617.5 L892.2,617.5 L895.0,617.5 L897.8,617.5 L900.6,617.5 L903.3,617.5 L906.1,617.5 L908.9,617.5 L911.7,617.5 L914.4,617.5 L917.2,617.5 L920.0,617.6 L922.8,617.6 L925.6,617.7 L928.3,617.7 L931.1,617.8 L933.9,617.8 L936.7,617.9 L939.4,617.9 L942.2,617.9 L945.0,618.0 L947.8,618.0 L950.6,618.1 L953.3,618.1 L956.1,618.1 L958.9,618.2 L961.7,618.3 L964.4,618.3 L967.2,618.4 L970.0,618.5 L972.8,618.5 L975.6,618.6 L978.3,618.7 L981.1,618.7 L983.9,618.8 L986.7,618.8 L989.4,618.8 L992.2,618.9 L995.0,618.9 L997.8,619.0 L1000.6,619.0 L1003.3,619.1 L1006.1,619.2 L1008.9,619.3 L1011.7,619.3 L1014.4,619.4 L1017.2,619.5 L1020.0,619.5 L1022.8,619.6 L1025.6,619.6 L1028.3,619.7 L1031.1,619.7 L1033.9,619.7 L1036.7,619.8 L1039.4,619.8 L1042.2,619.9 L1045.0,620.0 L1047.8,620.0 L1050.6,620.1 L1053.3,620.2 L1056.1,620.3 L1058.9,620.3 L1061.7,620.4 L1064.4,620.4 L1067.2,620.4" fill="none" stroke="#a9a9a9" stroke-width="1.6"/>
<path d="M70.0,633.6 L92.2,633.6 L114.4,633.6 L136.7,633.7 L158.9,633.7 L181.1,633.8 L203.3,625.4 L225.6,625.4 L247.8,625.4 L270.0,617.3 L292.2,579.9 L314.4,560.2 L336.7,560.2 L358.9,560.2 L381.1,580.3 L403.3,594.3 L425.6,604.3 L447.8,611.3 L470.0,616.1 L492.2,609.9 L514.4,609.9 L536.7,580.1 L558.9,562.3 L581.1,549.9 L603.3,523.0 L625.6,486.5 L647.8,462.3 L670.0,455.6 L692.2,436.7 L714.4,436.7 L736.7,436.7 L758.9,482.2 L781.1,513.5 L803.3,535.2 L825.6,550.3 L847.8,561.0 L870.0,568.7 L892.2,574.4 L914.4,578.8 L936.7,582.3 L958.9,585.2 L981.1,587.5 L1003.3,589.5 L1025.6,591.2 L1047.8,592.7" fill="none" stroke="#e8830f" stroke-width="2.8"/>
<line x1="70.0" y1="666" x2="70.0" y2="671" stroke="#999"/>
<text x="70.0" y="686" text-anchor="middle" fill="#999" font-size="12">0s</text>
<line x1="236.7" y1="666" x2="236.7" y2="671" stroke="#999"/>
<text x="236.7" y="686" text-anchor="middle" fill="#999" font-size="12">15s</text>
<line x1="403.3" y1="666" x2="403.3" y2="671" stroke="#999"/>
<text x="403.3" y="686" text-anchor="middle" fill="#999" font-size="12">30s</text>
<line x1="570.0" y1="666" x2="570.0" y2="671" stroke="#999"/>
<text x="570.0" y="686" text-anchor="middle" fill="#999" font-size="12">45s</text>
<line x1="736.7" y1="666" x2="736.7" y2="671" stroke="#999"/>
<text x="736.7" y="686" text-anchor="middle" fill="#999" font-size="12">60s</text>
<line x1="903.3" y1="666" x2="903.3" y2="671" stroke="#999"/>
<text x="903.3" y="686" text-anchor="middle" fill="#999" font-size="12">75s</text>
<line x1="1070.0" y1="666" x2="1070.0" y2="671" stroke="#999"/>
<text x="1070.0" y="686" text-anchor="middle" fill="#999" font-size="12">90s</text>
<text x="550" y="708" text-anchor="middle" fill="#777" font-size="13">elapsed time — quiet · squawk (~21 s) · sustained cry (~55 s)</text>
<g font-size="13" fill="#444">
<line x1="70" y1="742" x2="96" y2="742" stroke="#c7c7c7" stroke-width="2.6"/>
<text x="102" y="746">raw peak</text>
<line x1="188.8" y1="742" x2="214.8" y2="742" stroke="#7a86c2" stroke-width="2.6" stroke-dasharray="5 4"/>
<text x="220.8" y="746">smoothed envelope</text>
<line x1="376.0" y1="742" x2="402.0" y2="742" stroke="#8a8a8a" stroke-width="2.6"/>
<text x="408.0" y="746">adaptive noise floor</text>
<line x1="586.0" y1="742" x2="612.0" y2="742" stroke="#2f74d0" stroke-width="2.6"/>
<text x="618.0" y="746">gated live (published)</text>
<line x1="811.2" y1="742" x2="837.2" y2="742" stroke="#e8830f" stroke-width="2.6"/>
<text x="843.2" y="746">peak-hold events (published)</text>
</g>
<text x="70" y="722" fill="#999" font-size="13">events peak-hold rise: instant</text>
</g>
</svg>