<svg xmlns="http://www.w3.org/2000/svg" width="1100" height="1100" viewBox="0 0 1100 1100" font-family="Helvetica, Arial, sans-serif">
<rect width="1100" height="1100" fill="#ffffff"/>
<g transform="translate(0,177)">
<text x="70" y="34" fill="#222" font-size="19" font-weight="bold">Live (short window) — gate + adaptive floor</text>
<text x="1070" y="34" text-anchor="end" fill="#888" font-size="13">dB · 250 ms/sample</text>
<rect x="70" y="56" width="1000" height="270" fill="#fafafa" stroke="#ddd"/>
<line x1="70" y1="326.0" x2="1070" y2="326.0" stroke="#e3e3e3"/>
<text x="62" y="330.0" text-anchor="end" fill="#999" font-size="12">-70</text>
<line x1="70" y1="272.0" x2="1070" y2="272.0" stroke="#e3e3e3"/>
<text x="62" y="276.0" text-anchor="end" fill="#999" font-size="12">-60</text>
<line x1="70" y1="218.0" x2="1070" y2="218.0" stroke="#e3e3e3"/>
<text x="62" y="222.0" text-anchor="end" fill="#999" font-size="12">-50</text>
<line x1="70" y1="164.0" x2="1070" y2="164.0" stroke="#e3e3e3"/>
<text x="62" y="168.0" text-anchor="end" fill="#999" font-size="12">-40</text>
<line x1="70" y1="110.0" x2="1070" y2="110.0" stroke="#e3e3e3"/>
<text x="62" y="114.0" text-anchor="end" fill="#999" font-size="12">-30</text>
<line x1="70" y1="56.0" x2="1070" y2="56.0" stroke="#e3e3e3"/>
<text x="62" y="60.0" text-anchor="end" fill="#999" font-size="12">-20</text>
<line x1="70" y1="245.0" x2="1070" y2="245.0" stroke="#ef8b3f" stroke-width="1.5" stroke-dasharray="7 5" opacity="0.8"/>
<text x="1064" y="240.0" text-anchor="end" fill="#ef8b3f" font-size="12" font-weight="bold">squawk -55</text>
<line x1="70" y1="120.8" x2="1070" y2="120.8" stroke="#e8505b" stroke-width="1.5" stroke-dasharray="7 5" opacity="0.8"/>
<text x="1064" y="115.8" text-anchor="end" fill="#e8505b" font-size="12" font-weight="bold">cry -32</text>
<path d="M70.0,293.6 L72.8,287.8 L75.6,287.2 L78.3,289.8 L81.1,289.9 L83.9,287.0 L86.7,286.8 L89.4,292.0 L92.2,298.2 L95.0,299.6 L97.8,297.4 L100.6,297.1 L103.3,300.2 L106.1,301.3 L108.9,296.7 L111.7,290.2 L114.4,288.1 L117.2,290.0 L120.0,290.4 L122.8,287.1 L125.6,285.3 L128.3,289.1 L131.1,295.6 L133.9,298.4 L136.7,296.9 L139.4,296.4 L142.2,299.7 L145.0,302.4 L147.8,299.4 L150.6,293.0 L153.3,289.5 L156.1,290.6 L158.9,291.3 L161.7,288.0 L164.4,284.6 L167.2,286.6 L170.0,292.8 L172.8,296.8 L175.6,296.1 L178.3,295.3 L181.1,298.5 L183.9,302.6 L186.7,301.6 L189.4,295.8 L192.2,291.4 L195.0,291.6 L197.8,292.5 L200.6,289.5 L203.3,284.9 L206.1,284.8 L208.9,290.1 L211.7,294.8 L214.4,294.9 L217.2,293.9 L220.0,296.7 L222.8,301.7 L225.6,302.7 L228.3,297.9 L231.1,292.8 L233.9,292.0 L236.7,292.8 L239.4,289.9 L242.2,284.0 L245.0,281.1 L247.8,284.0 L250.6,287.8 L253.3,287.2 L256.1,284.1 L258.9,284.0 L261.7,286.9 L264.4,286.7 L267.2,280.1 L270.0,271.0 L272.8,265.1 L275.6,261.3 L278.3,254.1 L281.1,242.7 L283.9,232.9 L286.7,229.0 L289.4,228.0 L292.2,224.0 L295.0,217.6 L297.8,214.4 L300.6,216.4 L303.3,218.4 L306.1,215.7 L308.9,210.6 L311.7,209.4 L314.4,212.4 L317.2,214.4 L320.0,212.7 L322.8,211.6 L325.6,216.8 L328.3,226.4 L331.1,234.2 L333.9,238.7 L336.7,244.7 L339.4,255.5 L342.2,266.9 L345.0,272.8 L347.8,273.8 L350.6,275.8 L353.3,280.9 L356.1,284.5 L358.9,282.6 L361.7,278.5 L364.4,278.5 L367.2,283.0 L370.0,286.5 L372.8,285.9 L375.6,285.6 L378.3,290.1 L381.1,297.1 L383.9,300.1 L386.7,297.7 L389.4,295.4 L392.2,296.9 L395.0,298.5 L397.8,295.3 L400.6,288.6 L403.3,284.9 L406.1,286.5 L408.9,288.5 L411.7,286.9 L414.4,284.5 L417.2,286.9 L420.0,293.5 L422.8,297.7 L425.6,296.4 L428.3,293.8 L431.1,294.5 L433.9,296.6 L436.7,294.5 L439.4,287.9 L442.2,282.8 L445.0,283.1 L447.8,284.9 L450.6,283.1 L453.3,278.9 L456.1,278.6 L458.9,283.7 L461.7,288.8 L464.4,289.1 L467.2,287.0 L470.0,287.5 L472.8,289.9 L475.6,288.2 L478.3,280.8 L481.1,273.5 L483.9,271.8 L486.7,273.6 L489.4,272.8 L492.2,268.4 L495.0,265.5 L497.8,267.4 L500.6,270.3 L503.3,269.5 L506.1,266.7 L508.9,267.5 L511.7,272.0 L514.4,273.3 L517.2,266.8 L520.0,256.4 L522.8,249.2 L525.6,246.7 L528.3,244.6 L531.1,240.8 L533.9,239.1 L536.7,241.8 L539.4,244.7 L542.2,241.5 L545.0,233.3 L547.8,227.9 L550.6,229.7 L553.3,234.2 L556.1,234.2 L558.9,228.8 L561.7,221.9 L564.4,215.1 L567.2,205.7 L570.0,193.9 L572.8,186.4 L575.6,189.0 L578.3,198.2 L581.1,203.6 L583.9,199.4 L586.7,189.9 L589.4,182.0 L592.2,177.2 L595.0,173.3 L597.8,170.9 L600.6,172.7 L603.3,176.8 L606.1,174.5 L608.9,160.8 L611.7,141.5 L614.4,128.9 L617.2,128.8 L620.0,136.6 L622.8,144.6 L625.6,150.0 L628.3,152.0 L631.1,147.8 L633.9,134.9 L636.7,118.4 L639.4,109.4 L642.2,114.0 L645.0,125.7 L647.8,131.8 L650.6,126.6 L653.3,114.6 L656.1,102.5 L658.9,93.3 L661.7,88.8 L664.4,93.2 L667.2,108.1 L670.0,125.9 L672.8,133.2 L675.6,124.1 L678.3,106.2 L681.1,92.8 L683.9,89.9 L686.7,94.6 L689.4,102.3 L692.2,111.2 L695.0,118.2 L697.8,117.4 L700.6,106.4 L703.3,93.0 L706.1,90.2 L708.9,102.8 L711.7,122.4 L714.4,136.7 L717.2,141.0 L720.0,137.9 L722.8,130.8 L725.6,120.9 L728.3,112.3 L731.1,112.8 L733.9,125.6 L736.7,143.1 L739.4,153.1 L742.2,151.1 L745.0,144.4 L747.8,142.1 L750.6,146.3 L753.3,153.6 L756.1,163.0 L758.9,174.9 L761.7,186.0 L764.4,188.9 L767.2,180.6 L770.0,168.9 L772.8,165.0 L775.6,172.1 L778.3,183.4 L781.1,192.2 L783.9,198.6 L786.7,204.9 L789.4,209.6 L792.2,209.6 L795.0,207.2 L797.8,209.6 L800.6,219.6 L803.3,230.9 L806.1,234.9 L808.9,231.1 L811.7,226.5 L814.4,225.8 L817.2,226.9 L820.0,227.4 L822.8,229.9 L825.6,238.3 L828.3,249.9 L831.1,257.0 L833.9,256.5 L836.7,254.2 L839.4,256.4 L842.2,261.9 L845.0,264.7 L847.8,263.2 L850.6,262.0 L853.3,263.9 L856.1,265.8 L858.9,263.3 L861.7,259.3 L864.4,260.5 L867.2,268.3 L870.0,276.6 L872.8,279.6 L875.6,279.7 L878.3,282.0 L881.1,286.4 L883.9,287.5 L886.7,283.5 L889.4,279.4 L892.2,280.0 L895.0,282.9 L897.8,282.2 L900.6,277.8 L903.3,275.8 L906.1,279.9 L908.9,285.9 L911.7,288.4 L914.4,288.0 L917.2,290.2 L920.0,295.7 L922.8,298.9 L925.6,295.9 L928.3,290.4 L931.1,288.6 L933.9,290.2 L936.7,289.7 L939.4,285.2 L942.2,281.7 L945.0,284.0 L947.8,289.4 L950.6,291.9 L953.3,290.9 L956.1,291.7 L958.9,296.9 L961.7,301.7 L964.4,300.7 L967.2,295.8 L970.0,293.1 L972.8,294.1 L975.6,293.9 L978.3,289.3 L981.1,284.2 L983.9,284.4 L986.7,289.0 L989.4,292.1 L992.2,291.2 L995.0,291.0 L997.8,295.5 L1000.6,301.3 L1003.3,302.3 L1006.1,298.3 L1008.9,295.1 L1011.7,295.9 L1014.4,296.6 L1017.2,292.6 L1020.0,286.4 L1022.8,284.5 L1025.6,287.9 L1028.3,291.2 L1031.1,290.6 L1033.9,289.5 L1036.7,293.0 L1039.4,299.4 L1042.2,302.3 L1045.0,299.6 L1047.8,296.4 L1050.6,296.9 L1053.3,298.4 L1056.1,295.5 L1058.9,289.0 L1061.7,285.2 L1064.4,287.2 L1067.2,290.4" fill="none" stroke="#c7c7c7" stroke-width="1.3"/>
<path d="M70.0,293.6 L72.8,291.3 L75.6,289.6 L78.3,289.7 L81.1,289.7 L83.9,288.6 L86.7,287.9 L89.4,288.5 L92.2,290.0 L95.0,291.4 L97.8,292.3 L100.6,293.0 L103.3,294.1 L106.1,295.2 L108.9,295.4 L111.7,293.3 L114.4,291.2 L117.2,290.7 L120.0,290.6 L122.8,289.2 L125.6,287.6 L128.3,287.8 L131.1,289.0 L133.9,290.4 L136.7,291.4 L139.4,292.2 L142.2,293.3 L145.0,294.7 L147.8,295.4 L150.6,294.4 L153.3,292.5 L156.1,291.7 L158.9,291.6 L161.7,290.1 L164.4,287.9 L167.2,287.4 L170.0,288.2 L172.8,289.5 L175.6,290.5 L178.3,291.2 L181.1,292.3 L183.9,293.8 L186.7,295.0 L189.4,295.1 L192.2,293.6 L195.0,292.8 L197.8,292.7 L200.6,291.4 L203.3,288.8 L206.1,287.2 L208.9,287.6 L211.7,288.7 L214.4,289.6 L217.2,290.3 L220.0,291.2 L222.8,292.8 L225.6,294.3 L228.3,294.8 L231.1,294.0 L233.9,293.2 L236.7,293.1 L239.4,291.8 L242.2,288.7 L245.0,285.7 L247.8,285.0 L250.6,285.4 L253.3,285.7 L256.1,285.1 L258.9,284.6 L261.7,285.0 L264.4,285.2 L267.2,283.2 L270.0,278.3 L272.8,273.0 L275.6,268.3 L278.3,262.6 L281.1,254.7 L283.9,246.0 L286.7,239.2 L289.4,234.7 L292.2,230.4 L295.0,225.3 L297.8,220.9 L300.6,219.1 L303.3,218.8 L306.1,217.6 L308.9,214.8 L311.7,212.6 L314.4,212.5 L317.2,212.8 L320.0,212.8 L322.8,212.3 L325.6,213.0 L328.3,215.0 L331.1,217.9 L333.9,221.0 L336.7,224.6 L339.4,229.2 L342.2,234.8 L345.0,240.5 L347.8,245.5 L350.6,250.1 L353.3,254.7 L356.1,259.2 L358.9,262.7 L361.7,265.1 L364.4,267.1 L367.2,269.5 L370.0,272.0 L372.8,274.1 L375.6,275.8 L378.3,278.0 L381.1,280.8 L383.9,283.7 L386.7,285.8 L389.4,287.3 L392.2,288.7 L395.0,290.2 L397.8,290.9 L400.6,290.0 L403.3,287.9 L406.1,287.3 L408.9,287.5 L411.7,287.3 L414.4,286.1 L417.2,286.3 L420.0,287.3 L422.8,288.9 L425.6,290.0 L428.3,290.6 L431.1,291.2 L433.9,292.0 L436.7,292.4 L439.4,290.6 L442.2,287.5 L445.0,285.7 L447.8,285.4 L450.6,284.5 L453.3,282.2 L456.1,280.8 L458.9,281.2 L461.7,282.4 L464.4,283.4 L467.2,283.9 L470.0,284.4 L472.8,285.3 L475.6,285.7 L478.3,283.8 L481.1,279.6 L483.9,276.5 L486.7,275.3 L489.4,274.3 L492.2,271.9 L495.0,269.4 L497.8,268.6 L500.6,268.8 L503.3,268.9 L506.1,268.1 L508.9,267.8 L511.7,268.5 L514.4,269.2 L517.2,268.2 L520.0,263.5 L522.8,257.8 L525.6,253.4 L528.3,249.9 L531.1,246.3 L533.9,243.4 L536.7,242.7 L539.4,243.0 L542.2,242.4 L545.0,238.8 L547.8,234.4 L550.6,232.5 L553.3,232.8 L556.1,233.0 L558.9,231.3 L561.7,227.5 L564.4,222.5 L567.2,215.8 L570.0,207.0 L572.8,198.8 L575.6,194.9 L578.3,195.4 L581.1,196.6 L583.9,197.0 L586.7,194.2 L589.4,189.3 L592.2,184.5 L595.0,180.0 L597.8,176.4 L600.6,174.9 L603.3,175.2 L606.1,174.9 L608.9,169.3 L611.7,158.2 L614.4,146.5 L617.2,139.4 L620.0,138.3 L622.8,139.2 L625.6,140.8 L628.3,142.5 L631.1,143.3 L633.9,140.0 L636.7,131.3 L639.4,122.5 L642.2,119.1 L645.0,120.1 L647.8,121.9 L650.6,122.6 L653.3,119.4 L656.1,112.6 L658.9,104.9 L661.7,98.5 L664.4,96.4 L667.2,98.1 L670.0,102.3 L672.8,106.9 L675.6,109.5 L678.3,108.2 L681.1,102.0 L683.9,97.2 L686.7,96.1 L689.4,97.1 L692.2,99.2 L695.0,102.0 L697.8,104.3 L700.6,104.6 L703.3,100.0 L706.1,96.1 L708.9,97.1 L711.7,100.9 L714.4,106.3 L717.2,111.5 L720.0,115.4 L722.8,117.7 L725.6,118.2 L728.3,115.9 L731.1,114.6 L733.9,116.3 L736.7,120.3 L739.4,125.2 L742.2,129.1 L745.0,131.4 L747.8,133.0 L750.6,135.0 L753.3,137.8 L756.1,141.6 L758.9,146.6 L761.7,152.5 L764.4,157.9 L767.2,161.3 L770.0,162.5 L772.8,162.9 L775.6,164.2 L778.3,167.1 L781.1,170.9 L783.9,175.0 L786.7,179.5 L789.4,184.0 L792.2,187.9 L795.0,190.8 L797.8,193.6 L800.6,197.5 L803.3,202.5 L806.1,207.4 L808.9,210.9 L811.7,213.3 L814.4,215.1 L817.2,216.9 L820.0,218.5 L822.8,220.2 L825.6,222.9 L828.3,227.0 L831.1,231.5 L833.9,235.2 L836.7,238.1 L839.4,240.8 L842.2,244.0 L845.0,247.1 L847.8,249.5 L850.6,251.4 L853.3,253.3 L856.1,255.1 L858.9,256.4 L861.7,256.8 L864.4,257.4 L867.2,259.0 L870.0,261.6 L872.8,264.3 L875.6,266.6 L878.3,268.9 L881.1,271.6 L883.9,274.0 L886.7,275.4 L889.4,276.0 L892.2,276.6 L895.0,277.5 L897.8,278.2 L900.6,278.0 L903.3,277.1 L906.1,277.6 L908.9,278.8 L911.7,280.2 L914.4,281.4 L917.2,282.7 L920.0,284.7 L922.8,286.8 L925.6,288.2 L928.3,288.5 L931.1,288.5 L933.9,288.8 L936.7,288.9 L939.4,287.4 L942.2,285.1 L945.0,284.7 L947.8,285.4 L950.6,286.4 L953.3,287.0 L956.1,287.7 L958.9,289.1 L961.7,291.0 L964.4,292.5 L967.2,293.0 L970.0,293.0 L972.8,293.1 L975.6,293.3 L978.3,291.7 L981.1,288.7 L983.9,286.9 L986.7,287.3 L989.4,288.0 L992.2,288.5 L995.0,288.8 L997.8,289.8 L1000.6,291.6 L1003.3,293.2 L1006.1,293.9 L1008.9,294.1 L1011.7,294.4 L1014.4,294.7 L1017.2,293.9 L1020.0,290.9 L1022.8,288.3 L1025.6,288.2 L1028.3,288.6 L1031.1,288.9 L1033.9,289.0 L1036.7,289.6 L1039.4,291.1 L1042.2,292.8 L1045.0,293.8 L1047.8,294.2 L1050.6,294.6 L1053.3,295.2 L1056.1,295.2 L1058.9,292.7 L1061.7,289.7 L1064.4,288.7 L1067.2,288.9" fill="none" stroke="#7a86c2" stroke-width="1.6" stroke-dasharray="5 4"/>
<path d="M70.0,272.1 L72.8,272.2 L75.6,272.3 L78.3,272.4 L81.1,272.5 L83.9,272.5 L86.7,272.6 L89.4,272.7 L92.2,272.8 L95.0,272.9 L97.8,273.0 L100.6,273.1 L103.3,273.2 L106.1,273.3 L108.9,273.4 L111.7,273.5 L114.4,273.6 L117.2,273.7 L120.0,273.8 L122.8,273.8 L125.6,273.9 L128.3,274.0 L131.1,274.1 L133.9,274.1 L136.7,274.2 L139.4,274.3 L142.2,274.4 L145.0,274.5 L147.8,274.6 L150.6,274.7 L153.3,274.8 L156.1,274.9 L158.9,275.0 L161.7,275.0 L164.4,275.1 L167.2,275.2 L170.0,275.2 L172.8,275.3 L175.6,275.4 L178.3,275.5 L181.1,275.5 L183.9,275.6 L186.7,275.7 L189.4,275.8 L192.2,275.9 L195.0,276.0 L197.8,276.1 L200.6,276.2 L203.3,276.2 L206.1,276.3 L208.9,276.3 L211.7,276.4 L214.4,276.5 L217.2,276.5 L220.0,276.6 L222.8,276.7 L225.6,276.8 L228.3,276.9 L231.1,277.0 L233.9,277.0 L236.7,277.1 L239.4,277.2 L242.2,277.2 L245.0,277.3 L247.8,277.3 L250.6,277.4 L253.3,277.4 L256.1,277.4 L258.9,277.5 L261.7,277.5 L264.4,277.6 L267.2,277.6 L270.0,277.6 L272.8,277.6 L275.6,277.5 L278.3,277.5 L281.1,277.5 L283.9,277.5 L286.7,277.5 L289.4,277.5 L292.2,277.5 L295.0,277.5 L297.8,277.5 L300.6,277.5 L303.3,277.5 L306.1,277.5 L308.9,277.5 L311.7,277.5 L314.4,277.4 L317.2,277.4 L320.0,277.4 L322.8,277.4 L325.6,277.4 L328.3,277.4 L331.1,277.4 L333.9,277.4 L336.7,277.4 L339.4,277.4 L342.2,277.4 L345.0,277.4 L347.8,277.4 L350.6,277.4 L353.3,277.4 L356.1,277.4 L358.9,277.4 L361.7,277.4 L364.4,277.3 L367.2,277.3 L370.0,277.2 L372.8,277.2 L375.6,277.2 L378.3,277.2 L381.1,277.2 L383.9,277.3 L386.7,277.3 L389.4,277.4 L392.2,277.4 L395.0,277.5 L397.8,277.5 L400.6,277.6 L403.3,277.7 L406.1,277.7 L408.9,277.8 L411.7,277.8 L414.4,277.8 L417.2,277.9 L420.0,277.9 L422.8,278.0 L425.6,278.1 L428.3,278.1 L431.1,278.2 L433.9,278.3 L436.7,278.3 L439.4,278.4 L442.2,278.4 L445.0,278.5 L447.8,278.5 L450.6,278.5 L453.3,278.5 L456.1,278.6 L458.9,278.6 L461.7,278.6 L464.4,278.6 L467.2,278.6 L470.0,278.7 L472.8,278.7 L475.6,278.7 L478.3,278.8 L481.1,278.8 L483.9,278.8 L486.7,278.7 L489.4,278.7 L492.2,278.7 L495.0,278.6 L497.8,278.6 L500.6,278.5 L503.3,278.5 L506.1,278.4 L508.9,278.4 L511.7,278.3 L514.4,278.3 L517.2,278.2 L520.0,278.2 L522.8,278.2 L525.6,278.2 L528.3,278.2 L531.1,278.2 L533.9,278.2 L536.7,278.2 L539.4,278.2 L542.2,278.2 L545.0,278.2 L547.8,278.2 L550.6,278.2 L553.3,278.2 L556.1,278.2 L558.9,278.2 L561.7,278.2 L564.4,278.1 L567.2,278.1 L570.0,278.1 L572.8,278.1 L575.6,278.1 L578.3,278.1 L581.1,278.1 L583.9,278.1 L586.7,278.1 L589.4,278.1 L592.2,278.1 L595.0,278.1 L597.8,278.1 L600.6,278.1 L603.3,278.1 L606.1,278.1 L608.9,278.1 L611.7,278.1 L614.4,278.0 L617.2,278.0 L620.0,278.0 L622.8,278.0 L625.6,278.0 L628.3,278.0 L631.1,278.0 L633.9,278.0 L636.7,278.0 L639.4,278.0 L642.2,278.0 L645.0,278.0 L647.8,278.0 L650.6,278.0 L653.3,278.0 L656.1,278.0 L658.9,278.0 L661.7,278.0 L664.4,278.0 L667.2,277.9 L670.0,277.9 L672.8,277.9 L675.6,277.9 L678.3,277.9 L681.1,277.9 L683.9,277.9 L686.7,277.9 L689.4,277.9 L692.2,277.9 L695.0,277.9 L697.8,277.9 L700.6,277.9 L703.3,277.9 L706.1,277.9 L708.9,277.9 L711.7,277.9 L714.4,277.9 L717.2,277.9 L720.0,277.8 L722.8,277.8 L725.6,277.8 L728.3,277.8 L731.1,277.8 L733.9,277.8 L736.7,277.8 L739.4,277.8 L742.2,277.8 L745.0,277.8 L747.8,277.8 L750.6,277.8 L753.3,277.8 L756.1,277.8 L758.9,277.8 L761.7,277.8 L764.4,277.8 L767.2,277.8 L770.0,277.7 L772.8,277.7 L775.6,277.7 L778.3,277.7 L781.1,277.7 L783.9,277.7 L786.7,277.7 L789.4,277.7 L792.2,277.7 L795.0,277.7 L797.8,277.7 L800.6,277.7 L803.3,277.7 L806.1,277.7 L808.9,277.7 L811.7,277.7 L814.4,277.7 L817.2,277.7 L820.0,277.7 L822.8,277.6 L825.6,277.6 L828.3,277.6 L831.1,277.6 L833.9,277.6 L836.7,277.6 L839.4,277.6 L842.2,277.6 L845.0,277.6 L847.8,277.6 L850.6,277.6 L853.3,277.6 L856.1,277.6 L858.9,277.6 L861.7,277.6 L864.4,277.6 L867.2,277.6 L870.0,277.6 L872.8,277.5 L875.6,277.5 L878.3,277.5 L881.1,277.5 L883.9,277.5 L886.7,277.4 L889.4,277.4 L892.2,277.4 L895.0,277.4 L897.8,277.4 L900.6,277.4 L903.3,277.4 L906.1,277.4 L908.9,277.4 L911.7,277.5 L914.4,277.5 L917.2,277.5 L920.0,277.5 L922.8,277.6 L925.6,277.6 L928.3,277.7 L931.1,277.7 L933.9,277.8 L936.7,277.9 L939.4,277.9 L942.2,277.9 L945.0,278.0 L947.8,278.0 L950.6,278.1 L953.3,278.1 L956.1,278.1 L958.9,278.2 L961.7,278.3 L964.4,278.3 L967.2,278.4 L970.0,278.5 L972.8,278.6 L975.6,278.6 L978.3,278.7 L981.1,278.7 L983.9,278.8 L986.7,278.8 L989.4,278.9 L992.2,278.9 L995.0,279.0 L997.8,279.0 L1000.6,279.1 L1003.3,279.2 L1006.1,279.2 L1008.9,279.3 L1011.7,279.4 L1014.4,279.5 L1017.2,279.5 L1020.0,279.6 L1022.8,279.6 L1025.6,279.7 L1028.3,279.7 L1031.1,279.8 L1033.9,279.8 L1036.7,279.9 L1039.4,279.9 L1042.2,280.0 L1045.0,280.1 L1047.8,280.1 L1050.6,280.2 L1053.3,280.3 L1056.1,280.3 L1058.9,280.4 L1061.7,280.5 L1064.4,280.5 L1067.2,280.5" fill="none" stroke="#8a8a8a" stroke-width="2.2"/>
<path d="M70.0,272.1 L72.8,272.2 L75.6,272.3 L78.3,272.4 L81.1,272.5 L83.9,272.5 L86.7,272.6 L89.4,272.7 L92.2,272.8 L95.0,272.9 L97.8,273.0 L100.6,273.1 L103.3,273.2 L106.1,273.3 L108.9,273.4 L111.7,273.5 L114.4,273.6 L117.2,273.7 L120.0,273.8 L122.8,273.8 L125.6,273.9 L128.3,274.0 L131.1,274.1 L133.9,274.1 L136.7,274.2 L139.4,274.3 L142.2,274.4 L145.0,274.5 L147.8,274.6 L150.6,274.7 L153.3,274.8 L156.1,274.9 L158.9,275.0 L161.7,275.0 L164.4,275.1 L167.2,275.2 L170.0,275.2 L172.8,275.3 L175.6,275.4 L178.3,275.5 L181.1,275.5 L183.9,275.6 L186.7,275.7 L189.4,275.8 L192.2,275.9 L195.0,276.0 L197.8,276.1 L200.6,276.2 L203.3,276.2 L206.1,276.3 L208.9,276.3 L211.7,276.4 L214.4,276.5 L217.2,276.5 L220.0,276.6 L222.8,276.7 L225.6,276.8 L228.3,276.9 L231.1,277.0 L233.9,277.0 L236.7,277.1 L239.4,277.2 L242.2,277.2 L245.0,277.3 L247.8,277.3 L250.6,277.4 L253.3,277.4 L256.1,277.4 L258.9,277.5 L261.7,277.5 L264.4,277.6 L267.2,277.6 L270.0,277.6 L272.8,277.6 L275.6,277.5 L278.3,262.6 L281.1,254.7 L283.9,246.0 L286.7,239.2 L289.4,234.7 L292.2,230.4 L295.0,225.3 L297.8,220.9 L300.6,219.1 L303.3,218.8 L306.1,217.6 L308.9,214.8 L311.7,212.6 L314.4,212.5 L317.2,212.8 L320.0,212.8 L322.8,212.3 L325.6,213.0 L328.3,215.0 L331.1,217.9 L333.9,221.0 L336.7,224.6 L339.4,229.2 L342.2,234.8 L345.0,240.5 L347.8,245.5 L350.6,250.1 L353.3,254.7 L356.1,259.2 L358.9,262.7 L361.7,265.1 L364.4,277.3 L367.2,277.3 L370.0,277.2 L372.8,277.2 L375.6,277.2 L378.3,277.2 L381.1,277.2 L383.9,277.3 L386.7,277.3 L389.4,277.4 L392.2,277.4 L395.0,277.5 L397.8,277.5 L400.6,277.6 L403.3,277.7 L406.1,277.7 L408.9,277.8 L411.7,277.8 L414.4,277.8 L417.2,277.9 L420.0,277.9 L422.8,278.0 L425.6,278.1 L428.3,278.1 L431.1,278.2 L433.9,278.3 L436.7,278.3 L439.4,278.4 L442.2,278.4 L445.0,278.5 L447.8,278.5 L450.6,278.5 L453.3,278.5 L456.1,278.6 L458.9,278.6 L461.7,278.6 L464.4,278.6 L467.2,278.6 L470.0,278.7 L472.8,278.7 L475.6,278.7 L478.3,278.8 L481.1,278.8 L483.9,278.8 L486.7,278.7 L489.4,278.7 L492.2,278.7 L495.0,278.6 L497.8,278.6 L500.6,278.5 L503.3,278.5 L506.1,278.4 L508.9,278.4 L511.7,278.3 L514.4,278.3 L517.2,278.2 L520.0,263.5 L522.8,257.8 L525.6,253.4 L528.3,249.9 L531.1,246.3 L533.9,243.4 L536.7,242.7 L539.4,243.0 L542.2,242.4 L545.0,238.8 L547.8,234.4 L550.6,232.5 L553.3,232.8 L556.1,233.0 L558.9,231.3 L561.7,227.5 L564.4,222.5 L567.2,215.8 L570.0,207.0 L572.8,198.8 L575.6,194.9 L578.3,195.4 L581.1,196.6 L583.9,197.0 L586.7,194.2 L589.4,189.3 L592.2,184.5 L595.0,180.0 L597.8,176.4 L600.6,174.9 L603.3,175.2 L606.1,174.9 L608.9,169.3 L611.7,158.2 L614.4,146.5 L617.2,139.4 L620.0,138.3 L622.8,139.2 L625.6,140.8 L628.3,142.5 L631.1,143.3 L633.9,140.0 L636.7,131.3 L639.4,122.5 L642.2,119.1 L645.0,120.1 L647.8,121.9 L650.6,122.6 L653.3,119.4 L656.1,112.6 L658.9,104.9 L661.7,98.5 L664.4,96.4 L667.2,98.1 L670.0,102.3 L672.8,106.9 L675.6,109.5 L678.3,108.2 L681.1,102.0 L683.9,97.2 L686.7,96.1 L689.4,97.1 L692.2,99.2 L695.0,102.0 L697.8,104.3 L700.6,104.6 L703.3,100.0 L706.1,96.1 L708.9,97.1 L711.7,100.9 L714.4,106.3 L717.2,111.5 L720.0,115.4 L722.8,117.7 L725.6,118.2 L728.3,115.9 L731.1,114.6 L733.9,116.3 L736.7,120.3 L739.4,125.2 L742.2,129.1 L745.0,131.4 L747.8,133.0 L750.6,135.0 L753.3,137.8 L756.1,141.6 L758.9,146.6 L761.7,152.5 L764.4,157.9 L767.2,161.3 L770.0,162.5 L772.8,162.9 L775.6,164.2 L778.3,167.1 L781.1,170.9 L783.9,175.0 L786.7,179.5 L789.4,184.0 L792.2,187.9 L795.0,190.8 L797.8,193.6 L800.6,197.5 L803.3,202.5 L806.1,207.4 L808.9,210.9 L811.7,213.3 L814.4,215.1 L817.2,216.9 L820.0,218.5 L822.8,220.2 L825.6,222.9 L828.3,227.0 L831.1,231.5 L833.9,235.2 L836.7,238.1 L839.4,240.8 L842.2,244.0 L845.0,247.1 L847.8,249.5 L850.6,251.4 L853.3,253.3 L856.1,255.1 L858.9,256.4 L861.7,256.8 L864.4,257.4 L867.2,259.0 L870.0,261.6 L872.8,264.3 L875.6,266.6 L878.3,277.5 L881.1,277.5 L883.9,277.5 L886.7,277.4 L889.4,277.4 L892.2,277.4 L895.0,277.4 L897.8,277.4 L900.6,277.4 L903.3,277.4 L906.1,277.4 L908.9,277.4 L911.7,277.5 L914.4,277.5 L917.2,277.5 L920.0,277.5 L922.8,277.6 L925.6,277.6 L928.3,277.7 L931.1,277.7 L933.9,277.8 L936.7,277.9 L939.4,277.9 L942.2,277.9 L945.0,278.0 L947.8,278.0 L950.6,278.1 L953.3,278.1 L956.1,278.1 L958.9,278.2 L961.7,278.3 L964.4,278.3 L967.2,278.4 L970.0,278.5 L972.8,278.6 L975.6,278.6 L978.3,278.7 L981.1,278.7 L983.9,278.8 L986.7,278.8 L989.4,278.9 L992.2,278.9 L995.0,279.0 L997.8,279.0 L1000.6,279.1 L1003.3,279.2 L1006.1,279.2 L1008.9,279.3 L1011.7,279.4 L1014.4,279.5 L1017.2,279.5 L1020.0,279.6 L1022.8,279.6 L1025.6,279.7 L1028.3,279.7 L1031.1,279.8 L1033.9,279.8 L1036.7,279.9 L1039.4,279.9 L1042.2,280.0 L1045.0,280.1 L1047.8,280.1 L1050.6,280.2 L1053.3,280.3 L1056.1,280.3 L1058.9,280.4 L1061.7,280.5 L1064.4,280.5 L1067.2,280.5" fill="none" stroke="#2f74d0" stroke-width="2.6"/>
<text x="70" y="374" fill="#222" font-size="19" font-weight="bold">Events (long window) — peak-hold envelope</text>
<text x="1070" y="374" text-anchor="end" fill="#888" font-size="13">dB · 2 s/sample · 20 s hold</text>
<rect x="70" y="396" width="1000" height="270" fill="#fafafa" stroke="#ddd"/>
<line x1="70" y1="666.0" x2="1070" y2="666.0" stroke="#e3e3e3"/>
<text x="62" y="670.0" text-anchor="end" fill="#999" font-size="12">-70</text>
<line x1="70" y1="612.0" x2="1070" y2="612.0" stroke="#e3e3e3"/>
<text x="62" y="616.0" text-anchor="end" fill="#999" font-size="12">-60</text>
<line x1="70" y1="558.0" x2="1070" y2="558.0" stroke="#e3e3e3"/>
<text x="62" y="562.0" text-anchor="end" fill="#999" font-size="12">-50</text>
<line x1="70" y1="504.0" x2="1070" y2="504.0" stroke="#e3e3e3"/>
<text x="62" y="508.0" text-anchor="end" fill="#999" font-size="12">-40</text>
<line x1="70" y1="450.0" x2="1070" y2="450.0" stroke="#e3e3e3"/>
<text x="62" y="454.0" text-anchor="end" fill="#999" font-size="12">-30</text>
<line x1="70" y1="396.0" x2="1070" y2="396.0" stroke="#e3e3e3"/>
<text x="62" y="400.0" text-anchor="end" fill="#999" font-size="12">-20</text>
<path d="M70.0,633.6 L72.8,627.8 L75.6,627.2 L78.3,629.8 L81.1,629.9 L83.9,627.0 L86.7,626.8 L89.4,632.0 L92.2,638.2 L95.0,639.6 L97.8,637.4 L100.6,637.1 L103.3,640.2 L106.1,641.3 L108.9,636.7 L111.7,630.2 L114.4,628.1 L117.2,630.0 L120.0,630.4 L122.8,627.1 L125.6,625.3 L128.3,629.1 L131.1,635.6 L133.9,638.4 L136.7,636.9 L139.4,636.4 L142.2,639.7 L145.0,642.4 L147.8,639.4 L150.6,633.0 L153.3,629.5 L156.1,630.6 L158.9,631.3 L161.7,628.0 L164.4,624.6 L167.2,626.6 L170.0,632.8 L172.8,636.8 L175.6,636.1 L178.3,635.3 L181.1,638.5 L183.9,642.6 L186.7,641.6 L189.4,635.8 L192.2,631.4 L195.0,631.6 L197.8,632.5 L200.6,629.5 L203.3,624.9 L206.1,624.8 L208.9,630.1 L211.7,634.8 L214.4,634.9 L217.2,633.9 L220.0,636.7 L222.8,641.7 L225.6,642.7 L228.3,637.9 L231.1,632.8 L233.9,632.0 L236.7,632.8 L239.4,629.9 L242.2,624.0 L245.0,621.1 L247.8,624.0 L250.6,627.8 L253.3,627.2 L256.1,624.1 L258.9,624.0 L261.7,626.9 L264.4,626.7 L267.2,620.1 L270.0,611.0 L272.8,605.1 L275.6,601.3 L278.3,594.1 L281.1,582.7 L283.9,572.9 L286.7,569.0 L289.4,568.0 L292.2,564.0 L295.0,557.6 L297.8,554.4 L300.6,556.4 L303.3,558.4 L306.1,555.7 L308.9,550.6 L311.7,549.4 L314.4,552.4 L317.2,554.4 L320.0,552.7 L322.8,551.6 L325.6,556.8 L328.3,566.4 L331.1,574.2 L333.9,578.7 L336.7,584.7 L339.4,595.5 L342.2,606.9 L345.0,612.8 L347.8,613.8 L350.6,615.8 L353.3,620.9 L356.1,624.5 L358.9,622.6 L361.7,618.5 L364.4,618.5 L367.2,623.0 L370.0,626.5 L372.8,625.9 L375.6,625.6 L378.3,630.1 L381.1,637.1 L383.9,640.1 L386.7,637.7 L389.4,635.4 L392.2,636.9 L395.0,638.5 L397.8,635.3 L400.6,628.6 L403.3,624.9 L406.1,626.5 L408.9,628.5 L411.7,626.9 L414.4,624.5 L417.2,626.9 L420.0,633.5 L422.8,637.7 L425.6,636.4 L428.3,633.8 L431.1,634.5 L433.9,636.6 L436.7,634.5 L439.4,627.9 L442.2,622.8 L445.0,623.1 L447.8,624.9 L450.6,623.1 L453.3,618.9 L456.1,618.6 L458.9,623.7 L461.7,628.8 L464.4,629.1 L467.2,627.0 L470.0,627.5 L472.8,629.9 L475.6,628.2 L478.3,620.8 L481.1,613.5 L483.9,611.8 L486.7,613.6 L489.4,612.8 L492.2,608.4 L495.0,605.5 L497.8,607.4 L500.6,610.3 L503.3,609.5 L506.1,606.7 L508.9,607.5 L511.7,612.0 L514.4,613.3 L517.2,606.8 L520.0,596.4 L522.8,589.2 L525.6,586.7 L528.3,584.6 L531.1,580.8 L533.9,579.1 L536.7,581.8 L539.4,584.7 L542.2,581.5 L545.0,573.3 L547.8,567.9 L550.6,569.7 L553.3,574.2 L556.1,574.2 L558.9,568.8 L561.7,561.9 L564.4,555.1 L567.2,545.7 L570.0,533.9 L572.8,526.4 L575.6,529.0 L578.3,538.2 L581.1,543.6 L583.9,539.4 L586.7,529.9 L589.4,522.0 L592.2,517.2 L595.0,513.3 L597.8,510.9 L600.6,512.7 L603.3,516.8 L606.1,514.5 L608.9,500.8 L611.7,481.5 L614.4,468.9 L617.2,468.8 L620.0,476.6 L622.8,484.6 L625.6,490.0 L628.3,492.0 L631.1,487.8 L633.9,474.9 L636.7,458.4 L639.4,449.4 L642.2,454.0 L645.0,465.7 L647.8,471.8 L650.6,466.6 L653.3,454.6 L656.1,442.5 L658.9,433.3 L661.7,428.8 L664.4,433.2 L667.2,448.1 L670.0,465.9 L672.8,473.2 L675.6,464.1 L678.3,446.2 L681.1,432.8 L683.9,429.9 L686.7,434.6 L689.4,442.3 L692.2,451.2 L695.0,458.2 L697.8,457.4 L700.6,446.4 L703.3,433.0 L706.1,430.2 L708.9,442.8 L711.7,462.4 L714.4,476.7 L717.2,481.0 L720.0,477.9 L722.8,470.8 L725.6,460.9 L728.3,452.3 L731.1,452.8 L733.9,465.6 L736.7,483.1 L739.4,493.1 L742.2,491.1 L745.0,484.4 L747.8,482.1 L750.6,486.3 L753.3,493.6 L756.1,503.0 L758.9,514.9 L761.7,526.0 L764.4,528.9 L767.2,520.6 L770.0,508.9 L772.8,505.0 L775.6,512.1 L778.3,523.4 L781.1,532.2 L783.9,538.6 L786.7,544.9 L789.4,549.6 L792.2,549.6 L795.0,547.2 L797.8,549.6 L800.6,559.6 L803.3,570.9 L806.1,574.9 L808.9,571.1 L811.7,566.5 L814.4,565.8 L817.2,566.9 L820.0,567.4 L822.8,569.9 L825.6,578.3 L828.3,589.9 L831.1,597.0 L833.9,596.5 L836.7,594.2 L839.4,596.4 L842.2,601.9 L845.0,604.7 L847.8,603.2 L850.6,602.0 L853.3,603.9 L856.1,605.8 L858.9,603.3 L861.7,599.3 L864.4,600.5 L867.2,608.3 L870.0,616.6 L872.8,619.6 L875.6,619.7 L878.3,622.0 L881.1,626.4 L883.9,627.5 L886.7,623.5 L889.4,619.4 L892.2,620.0 L895.0,622.9 L897.8,622.2 L900.6,617.8 L903.3,615.8 L906.1,619.9 L908.9,625.9 L911.7,628.4 L914.4,628.0 L917.2,630.2 L920.0,635.7 L922.8,638.9 L925.6,635.9 L928.3,630.4 L931.1,628.6 L933.9,630.2 L936.7,629.7 L939.4,625.2 L942.2,621.7 L945.0,624.0 L947.8,629.4 L950.6,631.9 L953.3,630.9 L956.1,631.7 L958.9,636.9 L961.7,641.7 L964.4,640.7 L967.2,635.8 L970.0,633.1 L972.8,634.1 L975.6,633.9 L978.3,629.3 L981.1,624.2 L983.9,624.4 L986.7,629.0 L989.4,632.1 L992.2,631.2 L995.0,631.0 L997.8,635.5 L1000.6,641.3 L1003.3,642.3 L1006.1,638.3 L1008.9,635.1 L1011.7,635.9 L1014.4,636.6 L1017.2,632.6 L1020.0,626.4 L1022.8,624.5 L1025.6,627.9 L1028.3,631.2 L1031.1,630.6 L1033.9,629.5 L1036.7,633.0 L1039.4,639.4 L1042.2,642.3 L1045.0,639.6 L1047.8,636.4 L1050.6,636.9 L1053.3,638.4 L1056.1,635.5 L1058.9,629.0 L1061.7,625.2 L1064.4,627.2 L1067.2,630.4" fill="none" stroke="#d7d7d7" stroke-width="1.2"/>
<path d="M70.0,612.1 L72.8,612.2 L75.6,612.3 L78.3,612.4 L81.1,612.5 L83.9,612.5 L86.7,612.6 L89.4,612.7 L92.2,612.8 L95.0,612.9 L97.8,613.0 L100.6,613.1 L103.3,613.2 L106.1,613.3 L108.9,613.4 L111.7,613.5 L114.4,613.6 L117.2,613.7 L120.0,613.8 L122.8,613.8 L125.6,613.9 L128.3,614.0 L131.1,614.1 L133.9,614.1 L136.7,614.2 L139.4,614.3 L142.2,614.4 L145.0,614.5 L147.8,614.6 L150.6,614.7 L153.3,614.8 L156.1,614.9 L158.9,615.0 L161.7,615.0 L164.4,615.1 L167.2,615.2 L170.0,615.2 L172.8,615.3 L175.6,615.4 L178.3,615.5 L181.1,615.5 L183.9,615.6 L186.7,615.7 L189.4,615.8 L192.2,615.9 L195.0,616.0 L197.8,616.1 L200.6,616.2 L203.3,616.2 L206.1,616.3 L208.9,616.3 L211.7,616.4 L214.4,616.5 L217.2,616.5 L220.0,616.6 L222.8,616.7 L225.6,616.8 L228.3,616.9 L231.1,617.0 L233.9,617.0 L236.7,617.1 L239.4,617.2 L242.2,617.2 L245.0,617.3 L247.8,617.3 L250.6,617.4 L253.3,617.4 L256.1,617.4 L258.9,617.5 L261.7,617.5 L264.4,617.6 L267.2,617.6 L270.0,617.6 L272.8,617.6 L275.6,617.5 L278.3,617.5 L281.1,617.5 L283.9,617.5 L286.7,617.5 L289.4,617.5 L292.2,617.5 L295.0,617.5 L297.8,617.5 L300.6,617.5 L303.3,617.5 L306.1,617.5 L308.9,617.5 L311.7,617.5 L314.4,617.4 L317.2,617.4 L320.0,617.4 L322.8,617.4 L325.6,617.4 L328.3,617.4 L331.1,617.4 L333.9,617.4 L336.7,617.4 L339.4,617.4 L342.2,617.4 L345.0,617.4 L347.8,617.4 L350.6,617.4 L353.3,617.4 L356.1,617.4 L358.9,617.4 L361.7,617.4 L364.4,617.3 L367.2,617.3 L370.0,617.2 L372.8,617.2 L375.6,617.2 L378.3,617.2 L381.1,617.2 L383.9,617.3 L386.7,617.3 L389.4,617.4 L392.2,617.4 L395.0,617.5 L397.8,617.5 L400.6,617.6 L403.3,617.7 L406.1,617.7 L408.9,617.8 L411.7,617.8 L414.4,617.8 L417.2,617.9 L420.0,617.9 L422.8,618.0 L425.6,618.1 L428.3,618.1 L431.1,618.2 L433.9,618.3 L436.7,618.3 L439.4,618.4 L442.2,618.4 L445.0,618.5 L447.8,618.5 L450.6,618.5 L453.3,618.5 L456.1,618.6 L458.9,618.6 L461.7,618.6 L464.4,618.6 L467.2,618.6 L470.0,618.7 L472.8,618.7 L475.6,618.7 L478.3,618.8 L481.1,618.8 L483.9,618.8 L486.7,618.7 L489.4,618.7 L492.2,618.7 L495.0,618.6 L497.8,618.6 L500.6,618.5 L503.3,618.5 L506.1,618.4 L508.9,618.4 L511.7,618.3 L514.4,618.3 L517.2,618.2 L520.0,618.2 L522.8,618.2 L525.6,618.2 L528.3,618.2 L531.1,618.2 L533.9,618.2 L536.7,618.2 L539.4,618.2 L542.2,618.2 L545.0,618.2 L547.8,618.2 L550.6,618.2 L553.3,618.2 L556.1,618.2 L558.9,618.2 L561.7,618.2 L564.4,618.1 L567.2,618.1 L570.0,618.1 L572.8,618.1 L575.6,618.1 L578.3,618.1 L581.1,618.1 L583.9,618.1 L586.7,618.1 L589.4,618.1 L592.2,618.1 L595.0,618.1 L597.8,618.1 L600.6,618.1 L603.3,618.1 L606.1,618.1 L608.9,618.1 L611.7,618.1 L614.4,618.0 L617.2,618.0 L620.0,618.0 L622.8,618.0 L625.6,618.0 L628.3,618.0 L631.1,618.0 L633.9,618.0 L636.7,618.0 L639.4,618.0 L642.2,618.0 L645.0,618.0 L647.8,618.0 L650.6,618.0 L653.3,618.0 L656.1,618.0 L658.9,618.0 L661.7,618.0 L664.4,618.0 L667.2,617.9 L670.0,617.9 L672.8,617.9 L675.6,617.9 L678.3,617.9 L681.1,617.9 L683.9,617.9 L686.7,617.9 L689.4,617.9 L692.2,617.9 L695.0,617.9 L697.8,617.9 L700.6,617.9 L703.3,617.9 L706.1,617.9 L708.9,617.9 L711.7,617.9 L714.4,617.9 L717.2,617.9 L720.0,617.8 L722.8,617.8 L725.6,617.8 L728.3,617.8 L731.1,617.8 L733.9,617.8 L736.7,617.8 L739.4,617.8 L742.2,617.8 L745.0,617.8 L747.8,617.8 L750.6,617.8 L753.3,617.8 L756.1,617.8 L758.9,617.8 L761.7,617.8 L764.4,617.8 L767.2,617.8 L770.0,617.7 L772.8,617.7 L775.6,617.7 L778.3,617.7 L781.1,617.7 L783.9,617.7 L786.7,617.7 L789.4,617.7 L792.2,617.7 L795.0,617.7 L797.8,617.7 L800.6,617.7 L803.3,617.7 L806.1,617.7 L808.9,617.7 L811.7,617.7 L814.4,617.7 L817.2,617.7 L820.0,617.7 L822.8,617.6 L825.6,617.6 L828.3,617.6 L831.1,617.6 L833.9,617.6 L836.7,617.6 L839.4,617.6 L842.2,617.6 L845.0,617.6 L847.8,617.6 L850.6,617.6 L853.3,617.6 L856.1,617.6 L858.9,617.6 L861.7,617.6 L864.4,617.6 L867.2,617.6 L870.0,617.6 L872.8,617.5 L875.6,617.5 L878.3,617.5 L881.1,617.5 L883.9,617.5 L886.7,617.4 L889.4,617.4 L892.2,617.4 L895.0,617.4 L897.8,617.4 L900.6,617.4 L903.3,617.4 L906.1,617.4 L908.9,617.4 L911.7,617.5 L914.4,617.5 L917.2,617.5 L920.0,617.5 L922.8,617.6 L925.6,617.6 L928.3,617.7 L931.1,617.7 L933.9,617.8 L936.7,617.9 L939.4,617.9 L942.2,617.9 L945.0,618.0 L947.8,618.0 L950.6,618.1 L953.3,618.1 L956.1,618.1 L958.9,618.2 L961.7,618.3 L964.4,618.3 L967.2,618.4 L970.0,618.5 L972.8,618.6 L975.6,618.6 L978.3,618.7 L981.1,618.7 L983.9,618.8 L986.7,618.8 L989.4,618.9 L992.2,618.9 L995.0,619.0 L997.8,619.0 L1000.6,619.1 L1003.3,619.2 L1006.1,619.2 L1008.9,619.3 L1011.7,619.4 L1014.4,619.5 L1017.2,619.5 L1020.0,619.6 L1022.8,619.6 L1025.6,619.7 L1028.3,619.7 L1031.1,619.8 L1033.9,619.8 L1036.7,619.9 L1039.4,619.9 L1042.2,620.0 L1045.0,620.1 L1047.8,620.1 L1050.6,620.2 L1053.3,620.3 L1056.1,620.3 L1058.9,620.4 L1061.7,620.5 L1064.4,620.5 L1067.2,620.5" fill="none" stroke="#a9a9a9" stroke-width="1.6"/>
<path d="M70.0,633.6 L92.2,633.6 L114.4,633.6 L136.7,633.6 L158.9,633.6 L181.1,633.6 L203.3,633.6 L225.6,633.6 L247.8,633.6 L270.0,623.0 L292.2,599.4 L314.4,580.6 L336.7,580.6 L358.9,580.6 L381.1,580.6 L403.3,580.6 L425.6,580.6 L447.8,580.6 L470.0,580.6 L492.2,580.6 L514.4,580.6 L536.7,580.6 L558.9,584.9 L581.1,570.9 L603.3,549.3 L625.6,525.5 L647.8,504.0 L670.0,488.8 L692.2,473.7 L714.4,473.7 L736.7,473.7 L758.9,473.7 L781.1,473.7 L803.3,473.7 L825.6,473.7 L847.8,473.7 L870.0,473.7 L892.2,473.7 L914.4,473.7 L936.7,485.7 L958.9,496.5 L981.1,506.4 L1003.3,515.4 L1025.6,523.7 L1047.8,531.2" fill="none" stroke="#e8830f" stroke-width="2.8"/>
<line x1="70.0" y1="666" x2="70.0" y2="671" stroke="#999"/>
<text x="70.0" y="686" text-anchor="middle" fill="#999" font-size="12">0s</text>
<line x1="236.7" y1="666" x2="236.7" y2="671" stroke="#999"/>
<text x="236.7" y="686" text-anchor="middle" fill="#999" font-size="12">15s</text>
<line x1="403.3" y1="666" x2="403.3" y2="671" stroke="#999"/>
<text x="403.3" y="686" text-anchor="middle" fill="#999" font-size="12">30s</text>
<line x1="570.0" y1="666" x2="570.0" y2="671" stroke="#999"/>
<text x="570.0" y="686" text-anchor="middle" fill="#999" font-size="12">45s</text>
<line x1="736.7" y1="666" x2="736.7" y2="671" stroke="#999"/>
<text x="736.7" y="686" text-anchor="middle" fill="#999" font-size="12">60s</text>
<line x1="903.3" y1="666" x2="903.3" y2="671" stroke="#999"/>
<text x="903.3" y="686" text-anchor="middle" fill="#999" font-size="12">75s</text>
<line x1="1070.0" y1="666" x2="1070.0" y2="671" stroke="#999"/>
<text x="1070.0" y="686" text-anchor="middle" fill="#999" font-size="12">90s</text>
<text x="550" y="708" text-anchor="middle" fill="#777" font-size="13">elapsed time — quiet · squawk (~21 s) · sustained cry (~55 s)</text>
<g font-size="13" fill="#444">
<line x1="70" y1="742" x2="96" y2="742" stroke="#c7c7c7" stroke-width="2.6"/>
<text x="102" y="746">raw peak</text>
<line x1="188.8" y1="742" x2="214.8" y2="742" stroke="#7a86c2" stroke-width="2.6" stroke-dasharray="5 4"/>
<text x="220.8" y="746">smoothed envelope</text>
<line x1="376.0" y1="742" x2="402.0" y2="742" stroke="#8a8a8a" stroke-width="2.6"/>
<text x="408.0" y="746">adaptive noise floor</text>
<line x1="586.0" y1="742" x2="612.0" y2="742" stroke="#2f74d0" stroke-width="2.6"/>
<text x="618.0" y="746">gated live (published)</text>
<line x1="811.2" y1="742" x2="837.2" y2="742" stroke="#e8830f" stroke-width="2.6"/>
<text x="843.2" y="746">peak-hold events (published)</text>
</g>
</g>
</svg>